<svg width="402.37548" height="24.62823" xmlns="http://www.w3.org/2000/svg" style="vector-effect: non-scaling-stroke;" stroke="null">
 <defs style="vector-effect: non-scaling-stroke;" stroke="null">
  <style style="vector-effect: non-scaling-stroke;" stroke="null" type="text/css">*{stroke-linecap:butt;stroke-linejoin:round;}</style>
  <path stroke="#000000" style="vector-effect: non-scaling-stroke;" stroke-width="0.8" d="m0,0l0,3.5" id="m71042d6350"/>
  <path style="vector-effect: non-scaling-stroke;" stroke="null" d="m31.78125,66.40625q-7.60937,0 -11.45312,-7.5q-3.82813,-7.48437 -3.82813,-22.53125q0,-14.98437 3.82813,-22.48437q3.84375,-7.5 11.45312,-7.5q7.67188,0 11.5,7.5q3.84375,7.5 3.84375,22.48437q0,15.04688 -3.84375,22.53125q-3.82812,7.5 -11.5,7.5zm0,7.8125q12.26563,0 18.73438,-9.70312q6.46875,-9.6875 6.46875,-28.14063q0,-18.40625 -6.46875,-28.10937q-6.46875,-9.68751 -18.73438,-9.68751q-12.25,0 -18.71875,9.68751q-6.46875,9.70312 -6.46875,28.10937q0,18.45313 6.46875,28.14063q6.46875,9.70312 18.71875,9.70312z" id="DejaVuSans-48"/>
  <path style="vector-effect: non-scaling-stroke;" stroke="null" d="m10.79688,72.90625l38.71875,0l0,-8.3125l-29.6875,0l0,-17.85937q2.14062,0.73437 4.28125,1.09375q2.15625,0.35937 4.3125,0.35937q12.20312,0 19.32812,-6.6875q7.14063,-6.6875 7.14063,-18.10937q0,-11.76563 -7.32813,-18.29688q-7.32812,-6.51563 -20.65625,-6.51563q-4.59375,0 -9.35937,0.78125q-4.75,0.78125 -9.82813,2.34375l0,9.92188q4.39063,-2.39062 9.07813,-3.5625q4.6875,-1.17187 9.90625,-1.17187q8.45312,0 13.375,4.4375q4.9375,4.4375 4.9375,12.0625q0,7.60937 -4.9375,12.04687q-4.92188,4.45313 -13.375,4.45313q-3.95313,0 -7.89063,-0.875q-3.92187,-0.875 -8.01562,-2.73438l0,36.625z" id="DejaVuSans-53"/>
  <path style="vector-effect: non-scaling-stroke;" stroke="null" d="m12.40625,8.29688l16.10938,0l0,55.625l-17.53125,-3.51563l0,8.98438l17.4375,3.51562l9.85937,0l0,-64.60937l16.10938,0l0,-8.29688l-41.98438,0l0,8.29688z" id="DejaVuSans-49"/>
  <path style="vector-effect: non-scaling-stroke;" stroke="null" d="m19.1875,8.29688l34.42188,0l0,-8.29688l-46.28125,0l0,8.29688q5.60937,5.8125 15.29687,15.59375q9.70313,9.79687 12.1875,12.64062q4.73438,5.3125 6.60938,9q1.89062,3.6875 1.89062,7.25q0,5.8125 -4.07812,9.46875q-4.07813,3.67188 -10.625,3.67188q-4.64063,0 -9.79688,-1.60938q-5.14062,-1.60937 -11,-4.89062l0,9.96875q5.95313,2.39062 11.125,3.60937q5.1875,1.21875 9.48438,1.21875q11.32812,0 18.0625,-5.67187q6.73437,-5.65625 6.73437,-15.125q0,-4.5 -1.6875,-8.53125q-1.67187,-4.01563 -6.125,-9.48438q-1.21875,-1.42187 -7.76562,-8.1875q-6.53125,-6.76562 -18.45313,-18.92187z" id="DejaVuSans-50"/>
  <path style="vector-effect: non-scaling-stroke;" stroke="null" d="m52,44.1875q3.375,6.0625 8.0625,8.9375q4.6875,2.875 11.03125,2.875q8.54688,0 13.1875,-5.98437q4.64063,-5.96875 4.64063,-17l0,-33.01563l-9.03125,0l0,32.71875q0,7.85938 -2.79688,11.65625q-2.78125,3.8125 -8.48437,3.8125q-6.98438,0 -11.04688,-4.64062q-4.04687,-4.625 -4.04687,-12.64063l0,-30.90625l-9.03125,0l0,32.71875q0,7.90625 -2.78125,11.6875q-2.78125,3.78125 -8.59375,3.78125q-6.89063,0 -10.95313,-4.65625q-4.04687,-4.65625 -4.04687,-12.625l0,-30.90625l-9.03125,0l0,54.6875l9.03125,0l0,-8.5q3.07812,5.03125 7.375,7.42188q4.29687,2.39062 10.20312,2.39062q5.96875,0 10.14063,-3.03125q4.17187,-3.01562 6.17187,-8.78125z" id="DejaVuSans-109"/>
  <path style="vector-effect: non-scaling-stroke;" stroke="null" d="m8.5,21.57813l0,33.10937l8.98438,0l0,-32.76562q0,-7.76563 3.01562,-11.65625q3.03125,-3.875 9.09375,-3.875q7.26563,0 11.48438,4.64062q4.23437,4.64063 4.23437,12.65625l0,31l8.98438,0l0,-54.6875l-8.98438,0l0,8.40625q-3.26562,-4.98437 -7.59375,-7.40625q-4.3125,-2.42188 -10.03125,-2.42188q-9.42187,0 -14.3125,5.85938q-4.875,5.85938 -4.875,17.14063zm22.60938,34.42187z" id="DejaVuSans-117"/>
  <path style="vector-effect: non-scaling-stroke;" stroke="null" d="m18.3125,70.21875l0,-15.53125l18.5,0l0,-6.98437l-18.5,0l0,-29.6875q0,-6.6875 1.82813,-8.59375q1.82812,-1.90625 7.45312,-1.90625l9.21875,0l0,-7.51563l-9.21875,0q-10.40625,0 -14.35937,3.875q-3.95313,3.89063 -3.95313,14.14063l0,29.6875l-6.59375,0l0,6.98437l6.59375,0l0,15.53125l9.03125,0z" id="DejaVuSans-116"/>
  <path style="vector-effect: non-scaling-stroke;" stroke="null" d="m34.28125,27.48438q-10.89062,0 -15.09375,-2.48438q-4.20312,-2.48437 -4.20312,-8.5q0,-4.78125 3.15625,-7.59375q3.15625,-2.79687 8.5625,-2.79687q7.48437,0 12,5.29687q4.51562,5.29688 4.51562,14.07813l0,2l-8.9375,0zm17.92188,3.71875l0,-31.20313l-8.98438,0l0,8.29688q-3.07812,-4.96875 -7.67187,-7.34375q-4.59375,-2.37501 -11.23438,-2.37501q-8.39062,0 -13.35937,4.71876q-4.95313,4.71875 -4.95313,12.625q0,9.21875 6.17188,13.90625q6.1875,4.6875 18.4375,4.6875l12.60937,0l0,0.89062q0,6.20313 -4.07812,9.59375q-4.07813,3.39063 -11.45313,3.39063q-4.6875,0 -9.14062,-1.125q-4.4375,-1.125 -8.53125,-3.375l0,8.3125q4.92187,1.90625 9.5625,2.84375q4.64062,0.95312 9.03125,0.95312q11.875,0 17.73437,-6.15625q5.85938,-6.14062 5.85938,-18.64062z" id="DejaVuSans-97"/>
  <path style="vector-effect: non-scaling-stroke;" stroke="null" d="m9.42188,54.6875l8.98437,0l0,-54.6875l-8.98437,0l0,54.6875zm0,21.29688l8.98437,0l0,-11.39063l-8.98437,0l0,11.39063z" id="DejaVuSans-105"/>
  <path style="vector-effect: non-scaling-stroke;" stroke="null" d="m30.60938,48.39063q-7.21875,0 -11.42188,-5.64063q-4.20312,-5.64062 -4.20312,-15.45312q0,-9.8125 4.17187,-15.45313q4.1875,-5.64062 11.45313,-5.64062q7.1875,0 11.375,5.65625q4.20312,5.67187 4.20312,15.4375q0,9.71875 -4.20312,15.40625q-4.1875,5.6875 -11.375,5.6875zm0,7.60937q11.71875,0 18.40625,-7.625q6.70312,-7.60937 6.70312,-21.07812q0,-13.42188 -6.70312,-21.07813q-6.6875,-7.64063 -18.40625,-7.64063q-11.76563,0 -18.4375,7.64063q-6.65625,7.65625 -6.65625,21.07813q0,13.46875 6.65625,21.07812q6.67187,7.625 18.4375,7.625z" id="DejaVuSans-111"/>
  <path style="vector-effect: non-scaling-stroke;" stroke="null" d="m54.89063,33.01563l0,-33.01563l-8.98438,0l0,32.71875q0,7.76563 -3.03125,11.60938q-3.03125,3.85937 -9.07812,3.85937q-7.28125,0 -11.48438,-4.64062q-4.20312,-4.625 -4.20312,-12.64063l0,-30.90625l-9.03125,0l0,54.6875l9.03125,0l0,-8.5q3.23437,4.9375 7.59375,7.375q4.375,2.4375 10.09375,2.4375q9.42187,0 14.25,-5.82812q4.84375,-5.82813 4.84375,-17.15625z" id="DejaVuSans-110"/>
  <path style="vector-effect: non-scaling-stroke;" stroke="null" d="m44.28125,53.07813l0,-8.5q-3.79687,1.95312 -7.90625,2.92187q-4.09375,0.98438 -8.5,0.98438q-6.6875,0 -10.03125,-2.04688q-3.34375,-2.04687 -3.34375,-6.15625q0,-3.125 2.39063,-4.90625q2.39062,-1.78125 9.625,-3.39062l3.07812,-0.68751q9.5625,-2.04687 13.59375,-5.78124q4.03125,-3.73438 4.03125,-10.42188q0,-7.625 -6.03125,-12.07812q-6.03125,-4.43751 -16.57812,-4.43751q-4.39063,0 -9.15625,0.85938q-4.76563,0.85938 -10.03125,2.5625l0,9.28125q4.98437,-2.59375 9.8125,-3.89062q4.82812,-1.28125 9.57812,-1.28125q6.34375,0 9.75,2.17187q3.42188,2.17188 3.42188,6.125q0,3.65625 -2.46875,5.60938q-2.45313,1.95312 -10.8125,3.76562l-3.125,0.73438q-8.34375,1.75 -12.0625,5.39062q-3.70313,3.64063 -3.70313,9.98438q0,7.71875 5.46875,11.90625q5.46875,4.20312 15.53125,4.20312q4.96875,0 9.35938,-0.73437q4.40625,-0.71875 8.10937,-2.1875z" id="DejaVuSans-115"/>
  <path stroke="#000000" style="vector-effect: non-scaling-stroke;" stroke-width="0.8" d="m0,0l-3.5,0" id="md809543cac"/>
  <path style="vector-effect: non-scaling-stroke;" stroke="null" d="m9.8125,72.90625l14.70313,0l18.59375,-49.60937l18.70312,49.60937l14.70313,0l0,-72.90625l-9.625,0l0,64.01563l-18.79688,-50l-9.90625,0l-18.79687,50l0,-64.01563l-9.57813,0l0,72.90625z" id="DejaVuSans-77"/>
  <path style="vector-effect: non-scaling-stroke;" stroke="null" d="m9.8125,72.90625l46.09375,0l0,-8.3125l-36.23437,0l0,-21.57812l34.71875,0l0,-8.29688l-34.71875,0l0,-26.42187l37.10937,0l0,-8.29688l-46.96875,0l0,72.90625z" id="DejaVuSans-69"/>
  <path style="vector-effect: non-scaling-stroke;" stroke="null" d="m39.40625,66.21875q-10.75,0 -17.07812,-8.01562q-6.3125,-8 -6.3125,-21.82813q0,-13.76562 6.3125,-21.78125q6.32812,-8 17.07812,-8q10.73438,0 17.01563,8q6.28125,8.01563 6.28125,21.78125q0,13.82813 -6.28125,21.82813q-6.28125,8.01562 -17.01563,8.01562zm0,8q15.32813,0 24.5,-10.28125q9.1875,-10.28125 9.1875,-27.5625q0,-17.23437 -9.1875,-27.51562q-9.17187,-10.28126 -24.5,-10.28126q-15.375,0 -24.59375,10.25001q-9.20312,10.26562 -9.20312,27.54687q0,17.28125 9.20312,27.5625q9.21875,10.28125 24.59375,10.28125z" id="DejaVuSans-79"/>
  <path style="vector-effect: non-scaling-stroke;" stroke="null" d="m44.39063,34.1875q3.17187,-1.07812 6.17187,-4.59375q3,-3.51562 6.03125,-9.67187l10.01563,-19.92188l-10.60938,0l-9.3125,18.70313q-3.625,7.32812 -7.01562,9.71875q-3.39063,2.39062 -9.25,2.39062l-10.75,0l0,-30.8125l-9.85938,0l0,72.90625l22.26563,0q12.5,0 18.65625,-5.23437q6.15625,-5.21875 6.15625,-15.76563q0,-6.89062 -3.20313,-11.4375q-3.20312,-4.53125 -9.29687,-6.28125zm-24.71875,30.60938l0,-25.875l12.40625,0q7.125,0 10.76562,3.29687q3.64063,3.29688 3.64063,9.6875q0,6.39063 -3.64063,9.64063q-3.64062,3.25 -10.76562,3.25l-12.40625,0z" id="DejaVuSans-82"/>
  <path style="vector-effect: non-scaling-stroke;" stroke="null" d="m9.8125,72.90625l41.89063,0l0,-8.3125l-32.03125,0l0,-21.48437l28.90625,0l0,-8.29688l-28.90625,0l0,-34.8125l-9.85938,0l0,72.90625z" id="DejaVuSans-70"/>
  <path style="vector-effect: non-scaling-stroke;" stroke="null" d="m40.57813,39.3125q7.07812,-1.51562 11.04687,-6.3125q3.98438,-4.78125 3.98438,-11.8125q0,-10.78125 -7.42188,-16.70312q-7.42187,-5.90626 -21.09375,-5.90626q-4.57812,0 -9.4375,0.90625q-4.85937,0.90626 -10.03125,2.71876l0,9.51562q4.09375,-2.39062 8.96875,-3.60937q4.89063,-1.21875 10.21875,-1.21875q9.26563,0 14.125,3.65625q4.85938,3.65625 4.85938,10.64062q0,6.45313 -4.51563,10.07813q-4.51562,3.64062 -12.5625,3.64062l-8.5,0l0,8.10938l8.89063,0q7.26562,0 11.125,2.90625q3.85937,2.90625 3.85937,8.375q0,5.60937 -3.98437,8.60937q-3.96875,3.01563 -11.39063,3.01563q-4.0625,0 -8.70312,-0.89063q-4.64063,-0.875 -10.20313,-2.71875l0,8.78125q5.625,1.5625 10.53125,2.34375q4.90625,0.78125 9.25,0.78125q11.23438,0 17.76563,-5.10938q6.54687,-5.09375 6.54687,-13.78125q0,-6.0625 -3.46875,-10.23437q-3.46875,-4.17188 -9.85937,-5.78125z" id="DejaVuSans-51"/>
  <path style="vector-effect: non-scaling-stroke;" stroke="null" d="m53.51563,70.51563l0,-9.625q-5.60938,2.6875 -10.59375,4q-4.98438,1.32812 -9.625,1.32812q-8.04688,0 -12.42188,-3.125q-4.375,-3.125 -4.375,-8.89062q0,-4.84375 2.90625,-7.3125q2.90625,-2.45313 11.01563,-3.96875l5.95312,-1.21875q11.03125,-2.10938 16.28125,-7.40625q5.25,-5.29688 5.25,-14.17188q0,-10.60937 -7.10937,-16.07812q-7.09375,-5.46876 -20.8125,-5.46876q-5.17188,0 -11.01563,1.17188q-5.82812,1.17188 -12.07812,3.46875l0,10.15625q6,-3.35937 11.76562,-5.07812q5.76563,-1.70313 11.32813,-1.70313q8.4375,0 13.03125,3.3125q4.59375,3.32813 4.59375,9.48438q0,5.35937 -3.29688,8.39062q-3.29687,3.03125 -10.8125,4.54688l-6.01562,1.17187q-11.03125,2.1875 -15.96875,6.875q-4.92188,4.6875 -4.92188,13.04688q0,9.67187 6.8125,15.23437q6.8125,5.5625 18.76563,5.5625q5.14062,0 10.45312,-0.9375q5.32813,-0.92188 10.89063,-2.76563l0,0.00002l0,-0.00001z" id="DejaVuSans-83"/>
  <path style="vector-effect: non-scaling-stroke;" stroke="null" d="m50.98438,-16.60938l0,-6.96875l-51.96876,0l0,6.96875l51.96876,0z" id="DejaVuSans-95"/>
  <path style="vector-effect: non-scaling-stroke;" stroke="null" d="m19.67188,34.8125l0,-26.70312l15.82812,0q7.95313,0 11.78125,3.29687q3.84375,3.29688 3.84375,10.07813q0,6.84375 -3.84375,10.07812q-3.82812,3.25 -11.78125,3.25l-15.82812,0zm0,29.98438l0,-21.96875l14.60937,0q7.21875,0 10.75,2.70312q3.54688,2.71875 3.54688,8.28125q0,5.51563 -3.54688,8.25q-3.53125,2.73438 -10.75,2.73438l-14.60937,0zm-9.85938,8.10937l25.20313,0q11.28125,0 17.375,-4.6875q6.10937,-4.6875 6.10937,-13.32812q0,-6.70313 -3.125,-10.65625q-3.125,-3.95313 -9.1875,-4.92188q7.28125,-1.5625 11.3125,-6.53125q4.03125,-4.95312 4.03125,-12.375q0,-9.76562 -6.64062,-15.09375q-6.64063,-5.3125 -18.90625,-5.3125l-26.17188,0l0,72.90625z" id="DejaVuSans-66"/>
  <path style="vector-effect: non-scaling-stroke;" stroke="null" d="m19.67188,64.79688l0,-56.6875l11.92187,0q15.09375,0 22.09375,6.82812q7,6.84375 7,21.59375q0,14.64063 -7,21.45313q-7,6.8125 -22.09375,6.8125l-11.92187,0zm-9.85938,8.10937l20.26563,0q21.1875,0 31.09375,-8.8125q9.92187,-8.8125 9.92187,-27.5625q0,-18.85937 -9.96875,-27.70312q-9.95312,-8.82813 -31.04687,-8.82813l-20.26563,0l0,72.90625z" id="DejaVuSans-68"/>
  <path style="vector-effect: non-scaling-stroke;" stroke="null" d="m41.10938,46.29688q-1.51563,0.875 -3.29688,1.28125q-1.78125,0.42187 -3.92187,0.42187q-7.625,0 -11.70313,-4.95312q-4.07812,-4.95313 -4.07812,-14.23438l0,-28.8125l-9.03125,0l0,54.6875l9.03125,0l0,-8.5q2.84375,4.98438 7.375,7.39063q4.54687,2.42187 11.04687,2.42187q0.92188,0 2.04688,-0.125q1.125,-0.10937 2.48437,-0.35938l0.04688,-9.21874z" id="DejaVuSans-114"/>
  <path style="vector-effect: non-scaling-stroke;" stroke="null" d="m37.10938,75.98438l0,-7.48438l-8.59375,0q-4.82813,0 -6.71875,-1.95313q-1.875,-1.95312 -1.875,-7.03125l0,-4.82812l14.79687,0l0,-6.98437l-14.79687,0l0,-47.70313l-9.03125,0l0,47.70313l-8.59375,0l0,6.98437l8.59375,0l0,3.8125q0,9.125 4.25,13.29688q4.25,4.1875 13.46875,4.1875l8.5,0z" id="DejaVuSans-102"/>
  <path style="vector-effect: non-scaling-stroke;" stroke="null" d="m48.6875,27.29688q0,9.90625 -4.07812,15.54687q-4.07813,5.64063 -11.20313,5.64063q-7.14062,0 -11.21875,-5.64063q-4.07812,-5.64062 -4.07812,-15.54687q0,-9.90625 4.07812,-15.54688q4.07813,-5.64062 11.21875,-5.64062q7.125,0 11.20313,5.64062q4.07812,5.64063 4.07812,15.54688zm-30.57812,19.09375q2.84375,4.875 7.15625,7.23437q4.32812,2.375 10.32812,2.375q9.96875,0 16.1875,-7.90625q6.23438,-7.90625 6.23438,-20.79687q0,-12.89063 -6.23438,-20.8125q-6.21875,-7.90626 -16.1875,-7.90626q-6,0 -10.32812,2.37501q-4.3125,2.375 -7.15625,7.25l0,-8.20313l-9.03125,0l0,75.98438l9.03125,0l0,-29.59375z" id="DejaVuSans-98"/>
  <path style="vector-effect: non-scaling-stroke;" stroke="null" d="m45.40625,27.98438q0,9.76562 -4.03125,15.125q-4.01562,5.375 -11.29687,5.375q-7.21875,0 -11.25,-5.375q-4.03125,-5.35938 -4.03125,-15.125q0,-9.71875 4.03125,-15.09375q4.03125,-5.375 11.25,-5.375q7.28125,0 11.29687,5.375q4.03125,5.375 4.03125,15.09375zm8.98438,-21.20313q0,-13.95313 -6.20313,-20.76563q-6.1875,-6.8125 -18.98437,-6.8125q-4.73438,0 -8.9375,0.70313q-4.20313,0.70313 -8.15625,2.17188l0,8.73437q3.95312,-2.14063 7.8125,-3.15625q3.85937,-1.03125 7.85937,-1.03125q8.84375,0 13.23438,4.60937q4.39062,4.60938 4.39062,13.93751l0,4.45312q-2.78125,-4.84375 -7.125,-7.23437q-4.34375,-2.39063 -10.40625,-2.39063q-10.04687,0 -16.20312,7.65625q-6.15625,7.67188 -6.15625,20.32813q0,12.6875 6.15625,20.34375q6.15625,7.67187 16.20312,7.67187q6.0625,0 10.40625,-2.39062q4.34375,-2.39063 7.125,-7.21875l0,8.29687l8.98438,0l0,-47.90625z" id="DejaVuSans-103"/>
  <path style="vector-effect: non-scaling-stroke;" stroke="null" d="m56.20313,29.59375l0,-4.39062l-41.3125,0q0.59375,-9.28125 5.59375,-14.14063q5,-4.85937 13.9375,-4.85937q5.17187,0 10.03125,1.26562q4.85937,1.26563 9.65625,3.8125l0,-8.5q-4.84375,-2.04687 -9.92188,-3.125q-5.07812,-1.07813 -10.29687,-1.07813q-13.09375,0 -20.73438,7.60938q-7.64062,7.625 -7.64062,20.625q0,13.42188 7.25,21.29688q7.25,7.89062 19.5625,7.89062q11.03125,0 17.45312,-7.10937q6.42188,-7.09375 6.42188,-19.29688zm-8.98438,2.64063q-0.09375,7.35937 -4.125,11.75q-4.03125,4.40625 -10.67187,4.40625q-7.51563,0 -12.03125,-4.25q-4.51563,-4.25 -5.20313,-11.96875l32.03125,0.0625z" id="DejaVuSans-101"/>
  <clipPath style="vector-effect: non-scaling-stroke;" stroke="null" id="p2944796a00">
   <rect style="vector-effect: non-scaling-stroke;" stroke="null" height="307.23999" width="212.2" x="1528.44011" y="332.20119" id="rect1872"/>
  </clipPath>
  <style style="vector-effect: non-scaling-stroke;" stroke="null" type="text/css">*{stroke-linecap:butt;stroke-linejoin:round;}</style>
  <path stroke="#000000" style="vector-effect: non-scaling-stroke;" stroke-width="0.8" id="md8a634cd01" d="m0,0l0,3.5"/>
  <path style="vector-effect: non-scaling-stroke;" stroke="null" id="DejaVuSans-48-3" d="m31.78125,66.40625q-7.60937,0 -11.45312,-7.5q-3.82813,-7.48437 -3.82813,-22.53125q0,-14.98437 3.82813,-22.48437q3.84375,-7.5 11.45312,-7.5q7.67188,0 11.5,7.5q3.84375,7.5 3.84375,22.48437q0,15.04688 -3.84375,22.53125q-3.82812,7.5 -11.5,7.5zm0,7.8125q12.26563,0 18.73438,-9.70312q6.46875,-9.6875 6.46875,-28.14063q0,-18.40625 -6.46875,-28.10937q-6.46875,-9.68751 -18.73438,-9.68751q-12.25,0 -18.71875,9.68751q-6.46875,9.70312 -6.46875,28.10937q0,18.45313 6.46875,28.14063q6.46875,9.70312 18.71875,9.70312z"/>
  <path style="vector-effect: non-scaling-stroke;" stroke="null" id="DejaVuSans-50-1" d="m19.1875,8.29688l34.42188,0l0,-8.29688l-46.28125,0l0,8.29688q5.60937,5.8125 15.29687,15.59375q9.70313,9.79687 12.1875,12.64062q4.73438,5.3125 6.60938,9q1.89062,3.6875 1.89062,7.25q0,5.8125 -4.07812,9.46875q-4.07813,3.67188 -10.625,3.67188q-4.64063,0 -9.79688,-1.60938q-5.14062,-1.60937 -11,-4.89062l0,9.96875q5.95313,2.39062 11.125,3.60937q5.1875,1.21875 9.48438,1.21875q11.32812,0 18.0625,-5.67187q6.73437,-5.65625 6.73437,-15.125q0,-4.5 -1.6875,-8.53125q-1.67187,-4.01563 -6.125,-9.48438q-1.21875,-1.42187 -7.76562,-8.1875q-6.53125,-6.76562 -18.45313,-18.92187z"/>
  <path style="vector-effect: non-scaling-stroke;" stroke="null" id="DejaVuSans-52" d="m37.79688,64.3125l-24.90625,-38.92187l24.90625,0l0,38.92187zm-2.59375,8.59375l12.40625,0l0,-47.51562l10.40625,0l0,-8.20313l-10.40625,0l0,-17.1875l-9.8125,0l0,17.1875l-32.90625,0l0,9.51563l30.3125,46.20312z"/>
  <path style="vector-effect: non-scaling-stroke;" stroke="null" id="DejaVuSans-54" d="m33.01563,40.375q-6.64063,0 -10.53125,-4.54687q-3.875,-4.53125 -3.875,-12.4375q0,-7.85938 3.875,-12.4375q3.89062,-4.5625 10.53125,-4.5625q6.64062,0 10.51562,4.5625q3.875,4.57812 3.875,12.4375q0,7.90625 -3.875,12.4375q-3.875,4.54687 -10.51562,4.54687zm19.57812,30.92188l0,-8.98438q-3.71875,1.75 -7.5,2.67188q-3.78125,0.9375 -7.5,0.9375q-9.76562,0 -14.92187,-6.59375q-5.14063,-6.59375 -5.875,-19.92188q2.875,4.25 7.21875,6.51563q4.35937,2.26562 9.57812,2.26562q10.98438,0 17.35938,-6.67187q6.375,-6.65625 6.375,-18.125q0,-11.23438 -6.64063,-18.03125q-6.64062,-6.78125 -17.67187,-6.78125q-12.65625,0 -19.34375,9.6875q-6.6875,9.70312 -6.6875,28.10937q0,17.28125 8.20312,27.5625q8.20313,10.28125 22.01563,10.28125q3.71875,0 7.5,-0.73437q3.78125,-0.73438 7.89062,-2.1875z"/>
  <path style="vector-effect: non-scaling-stroke;" stroke="null" id="DejaVuSans-109-3" d="m52,44.1875q3.375,6.0625 8.0625,8.9375q4.6875,2.875 11.03125,2.875q8.54688,0 13.1875,-5.98437q4.64063,-5.96875 4.64063,-17l0,-33.01563l-9.03125,0l0,32.71875q0,7.85938 -2.79688,11.65625q-2.78125,3.8125 -8.48437,3.8125q-6.98438,0 -11.04688,-4.64062q-4.04687,-4.625 -4.04687,-12.64063l0,-30.90625l-9.03125,0l0,32.71875q0,7.90625 -2.78125,11.6875q-2.78125,3.78125 -8.59375,3.78125q-6.89063,0 -10.95313,-4.65625q-4.04687,-4.65625 -4.04687,-12.625l0,-30.90625l-9.03125,0l0,54.6875l9.03125,0l0,-8.5q3.07812,5.03125 7.375,7.42188q4.29687,2.39062 10.20312,2.39062q5.96875,0 10.14063,-3.03125q4.17187,-3.01562 6.17187,-8.78125z"/>
  <path style="vector-effect: non-scaling-stroke;" stroke="null" id="DejaVuSans-117-7" d="m8.5,21.57813l0,33.10937l8.98438,0l0,-32.76562q0,-7.76563 3.01562,-11.65625q3.03125,-3.875 9.09375,-3.875q7.26563,0 11.48438,4.64062q4.23437,4.64063 4.23437,12.65625l0,31l8.98438,0l0,-54.6875l-8.98438,0l0,8.40625q-3.26562,-4.98437 -7.59375,-7.40625q-4.3125,-2.42188 -10.03125,-2.42188q-9.42187,0 -14.3125,5.85938q-4.875,5.85938 -4.875,17.14063zm22.60938,34.42187z"/>
  <path style="vector-effect: non-scaling-stroke;" stroke="null" id="DejaVuSans-116-7" d="m18.3125,70.21875l0,-15.53125l18.5,0l0,-6.98437l-18.5,0l0,-29.6875q0,-6.6875 1.82813,-8.59375q1.82812,-1.90625 7.45312,-1.90625l9.21875,0l0,-7.51563l-9.21875,0q-10.40625,0 -14.35937,3.875q-3.95313,3.89063 -3.95313,14.14063l0,29.6875l-6.59375,0l0,6.98437l6.59375,0l0,15.53125l9.03125,0z"/>
  <path style="vector-effect: non-scaling-stroke;" stroke="null" id="DejaVuSans-97-4" d="m34.28125,27.48438q-10.89062,0 -15.09375,-2.48438q-4.20312,-2.48437 -4.20312,-8.5q0,-4.78125 3.15625,-7.59375q3.15625,-2.79687 8.5625,-2.79687q7.48437,0 12,5.29687q4.51562,5.29688 4.51562,14.07813l0,2l-8.9375,0zm17.92188,3.71875l0,-31.20313l-8.98438,0l0,8.29688q-3.07812,-4.96875 -7.67187,-7.34375q-4.59375,-2.37501 -11.23438,-2.37501q-8.39062,0 -13.35937,4.71876q-4.95313,4.71875 -4.95313,12.625q0,9.21875 6.17188,13.90625q6.1875,4.6875 18.4375,4.6875l12.60937,0l0,0.89062q0,6.20313 -4.07812,9.59375q-4.07813,3.39063 -11.45313,3.39063q-4.6875,0 -9.14062,-1.125q-4.4375,-1.125 -8.53125,-3.375l0,8.3125q4.92187,1.90625 9.5625,2.84375q4.64062,0.95312 9.03125,0.95312q11.875,0 17.73437,-6.15625q5.85938,-6.14062 5.85938,-18.64062z"/>
  <path style="vector-effect: non-scaling-stroke;" stroke="null" id="DejaVuSans-105-6" d="m9.42188,54.6875l8.98437,0l0,-54.6875l-8.98437,0l0,54.6875zm0,21.29688l8.98437,0l0,-11.39063l-8.98437,0l0,11.39063z"/>
  <path style="vector-effect: non-scaling-stroke;" stroke="null" id="DejaVuSans-111-5" d="m30.60938,48.39063q-7.21875,0 -11.42188,-5.64063q-4.20312,-5.64062 -4.20312,-15.45312q0,-9.8125 4.17187,-15.45313q4.1875,-5.64062 11.45313,-5.64062q7.1875,0 11.375,5.65625q4.20312,5.67187 4.20312,15.4375q0,9.71875 -4.20312,15.40625q-4.1875,5.6875 -11.375,5.6875zm0,7.60937q11.71875,0 18.40625,-7.625q6.70312,-7.60937 6.70312,-21.07812q0,-13.42188 -6.70312,-21.07813q-6.6875,-7.64063 -18.40625,-7.64063q-11.76563,0 -18.4375,7.64063q-6.65625,7.65625 -6.65625,21.07813q0,13.46875 6.65625,21.07812q6.67187,7.625 18.4375,7.625z"/>
  <path style="vector-effect: non-scaling-stroke;" stroke="null" id="DejaVuSans-110-1" d="m54.89063,33.01563l0,-33.01563l-8.98438,0l0,32.71875q0,7.76563 -3.03125,11.60938q-3.03125,3.85937 -9.07812,3.85937q-7.28125,0 -11.48438,-4.64062q-4.20312,-4.625 -4.20312,-12.64063l0,-30.90625l-9.03125,0l0,54.6875l9.03125,0l0,-8.5q3.23437,4.9375 7.59375,7.375q4.375,2.4375 10.09375,2.4375q9.42187,0 14.25,-5.82812q4.84375,-5.82813 4.84375,-17.15625z"/>
  <path style="vector-effect: non-scaling-stroke;" stroke="null" id="DejaVuSans-115-2" d="m44.28125,53.07813l0,-8.5q-3.79687,1.95312 -7.90625,2.92187q-4.09375,0.98438 -8.5,0.98438q-6.6875,0 -10.03125,-2.04688q-3.34375,-2.04687 -3.34375,-6.15625q0,-3.125 2.39063,-4.90625q2.39062,-1.78125 9.625,-3.39062l3.07812,-0.68751q9.5625,-2.04687 13.59375,-5.78124q4.03125,-3.73438 4.03125,-10.42188q0,-7.625 -6.03125,-12.07812q-6.03125,-4.43751 -16.57812,-4.43751q-4.39063,0 -9.15625,0.85938q-4.76563,0.85938 -10.03125,2.5625l0,9.28125q4.98437,-2.59375 9.8125,-3.89062q4.82812,-1.28125 9.57812,-1.28125q6.34375,0 9.75,2.17187q3.42188,2.17188 3.42188,6.125q0,3.65625 -2.46875,5.60938q-2.45313,1.95312 -10.8125,3.76562l-3.125,0.73438q-8.34375,1.75 -12.0625,5.39062q-3.70313,3.64063 -3.70313,9.98438q0,7.71875 5.46875,11.90625q5.46875,4.20312 15.53125,4.20312q4.96875,0 9.35938,-0.73437q4.40625,-0.71875 8.10937,-2.1875z"/>
  <path stroke="#000000" style="vector-effect: non-scaling-stroke;" stroke-width="0.8" id="mc9a7eb6009" d="m0,0l-3.5,0"/>
  <path style="vector-effect: non-scaling-stroke;" stroke="null" id="DejaVuSans-79-6" d="m39.40625,66.21875q-10.75,0 -17.07812,-8.01562q-6.3125,-8 -6.3125,-21.82813q0,-13.76562 6.3125,-21.78125q6.32812,-8 17.07812,-8q10.73438,0 17.01563,8q6.28125,8.01563 6.28125,21.78125q0,13.82813 -6.28125,21.82813q-6.28125,8.01562 -17.01563,8.01562zm0,8q15.32813,0 24.5,-10.28125q9.1875,-10.28125 9.1875,-27.5625q0,-17.23437 -9.1875,-27.51562q-9.17187,-10.28126 -24.5,-10.28126q-15.375,0 -24.59375,10.25001q-9.20312,10.26562 -9.20312,27.54687q0,17.28125 9.20312,27.5625q9.21875,10.28125 24.59375,10.28125z"/>
  <path style="vector-effect: non-scaling-stroke;" stroke="null" id="DejaVuSans-82-5" d="m44.39063,34.1875q3.17187,-1.07812 6.17187,-4.59375q3,-3.51562 6.03125,-9.67187l10.01563,-19.92188l-10.60938,0l-9.3125,18.70313q-3.625,7.32812 -7.01562,9.71875q-3.39063,2.39062 -9.25,2.39062l-10.75,0l0,-30.8125l-9.85938,0l0,72.90625l22.26563,0q12.5,0 18.65625,-5.23437q6.15625,-5.21875 6.15625,-15.76563q0,-6.89062 -3.20313,-11.4375q-3.20312,-4.53125 -9.29687,-6.28125zm-24.71875,30.60938l0,-25.875l12.40625,0q7.125,0 10.76562,3.29687q3.64063,3.29688 3.64063,9.6875q0,6.39063 -3.64063,9.64063q-3.64062,3.25 -10.76562,3.25l-12.40625,0z"/>
  <path style="vector-effect: non-scaling-stroke;" stroke="null" id="DejaVuSans-70-7" d="m9.8125,72.90625l41.89063,0l0,-8.3125l-32.03125,0l0,-21.48437l28.90625,0l0,-8.29688l-28.90625,0l0,-34.8125l-9.85938,0l0,72.90625z"/>
  <path style="vector-effect: non-scaling-stroke;" stroke="null" id="DejaVuSans-49-9" d="m12.40625,8.29688l16.10938,0l0,55.625l-17.53125,-3.51563l0,8.98438l17.4375,3.51562l9.85937,0l0,-64.60937l16.10938,0l0,-8.29688l-41.98438,0l0,8.29688z"/>
  <path style="vector-effect: non-scaling-stroke;" stroke="null" id="DejaVuSans-69-5" d="m9.8125,72.90625l46.09375,0l0,-8.3125l-36.23437,0l0,-21.57812l34.71875,0l0,-8.29688l-34.71875,0l0,-26.42187l37.10937,0l0,-8.29688l-46.96875,0l0,72.90625z"/>
  <path style="vector-effect: non-scaling-stroke;" stroke="null" id="DejaVuSans-83-0" d="m53.51563,70.51563l0,-9.625q-5.60938,2.6875 -10.59375,4q-4.98438,1.32812 -9.625,1.32812q-8.04688,0 -12.42188,-3.125q-4.375,-3.125 -4.375,-8.89062q0,-4.84375 2.90625,-7.3125q2.90625,-2.45313 11.01563,-3.96875l5.95312,-1.21875q11.03125,-2.10938 16.28125,-7.40625q5.25,-5.29688 5.25,-14.17188q0,-10.60937 -7.10937,-16.07812q-7.09375,-5.46876 -20.8125,-5.46876q-5.17188,0 -11.01563,1.17188q-5.82812,1.17188 -12.07812,3.46875l0,10.15625q6,-3.35937 11.76562,-5.07812q5.76563,-1.70313 11.32813,-1.70313q8.4375,0 13.03125,3.3125q4.59375,3.32813 4.59375,9.48438q0,5.35937 -3.29688,8.39062q-3.29687,3.03125 -10.8125,4.54688l-6.01562,1.17187q-11.03125,2.1875 -15.96875,6.875q-4.92188,4.6875 -4.92188,13.04688q0,9.67187 6.8125,15.23437q6.8125,5.5625 18.76563,5.5625q5.14062,0 10.45312,-0.9375q5.32813,-0.92188 10.89063,-2.76563l0,0.00002l0,-0.00001z"/>
  <path style="vector-effect: non-scaling-stroke;" stroke="null" id="DejaVuSans-95-2" d="m50.98438,-16.60938l0,-6.96875l-51.96876,0l0,6.96875l51.96876,0z"/>
  <path style="vector-effect: non-scaling-stroke;" stroke="null" id="DejaVuSans-66-6" d="m19.67188,34.8125l0,-26.70312l15.82812,0q7.95313,0 11.78125,3.29687q3.84375,3.29688 3.84375,10.07813q0,6.84375 -3.84375,10.07812q-3.82812,3.25 -11.78125,3.25l-15.82812,0zm0,29.98438l0,-21.96875l14.60937,0q7.21875,0 10.75,2.70312q3.54688,2.71875 3.54688,8.28125q0,5.51563 -3.54688,8.25q-3.53125,2.73438 -10.75,2.73438l-14.60937,0zm-9.85938,8.10937l25.20313,0q11.28125,0 17.375,-4.6875q6.10937,-4.6875 6.10937,-13.32812q0,-6.70313 -3.125,-10.65625q-3.125,-3.95313 -9.1875,-4.92188q7.28125,-1.5625 11.3125,-6.53125q4.03125,-4.95312 4.03125,-12.375q0,-9.76562 -6.64062,-15.09375q-6.64063,-5.3125 -18.90625,-5.3125l-26.17188,0l0,72.90625z"/>
  <path style="vector-effect: non-scaling-stroke;" stroke="null" id="DejaVuSans-68-3" d="m19.67188,64.79688l0,-56.6875l11.92187,0q15.09375,0 22.09375,6.82812q7,6.84375 7,21.59375q0,14.64063 -7,21.45313q-7,6.8125 -22.09375,6.8125l-11.92187,0zm-9.85938,8.10937l20.26563,0q21.1875,0 31.09375,-8.8125q9.92187,-8.8125 9.92187,-27.5625q0,-18.85937 -9.96875,-27.70312q-9.95312,-8.82813 -31.04687,-8.82813l-20.26563,0l0,72.90625z"/>
  <path style="vector-effect: non-scaling-stroke;" stroke="null" id="DejaVuSans-55" d="m8.20313,72.90625l46.875,0l0,-4.20312l-26.46875,-68.70313l-10.29688,0l24.90625,64.59375l-35.01562,0l0,8.3125z"/>
  <path style="vector-effect: non-scaling-stroke;" stroke="null" id="DejaVuSans-77-8" d="m9.8125,72.90625l14.70313,0l18.59375,-49.60937l18.70312,49.60937l14.70313,0l0,-72.90625l-9.625,0l0,64.01563l-18.79688,-50l-9.90625,0l-18.79687,50l0,-64.01563l-9.57813,0l0,72.90625z"/>
  <path style="vector-effect: non-scaling-stroke;" stroke="null" id="DejaVuSans-56" d="m31.78125,34.625q-7.03125,0 -11.0625,-3.76562q-4.01562,-3.76563 -4.01562,-10.34375q0,-6.59375 4.01562,-10.35938q4.03125,-3.76562 11.0625,-3.76562q7.03125,0 11.07813,3.78125q4.0625,3.79687 4.0625,10.34375q0,6.57812 -4.03125,10.34375q-4.01563,3.76562 -11.10938,3.76562zm-9.85937,4.1875q-6.34375,1.5625 -9.89063,5.90625q-3.53125,4.35938 -3.53125,10.60938q0,8.73437 6.21875,13.8125q6.23438,5.07812 17.0625,5.07812q10.89063,0 17.09375,-5.07812q6.20313,-5.07813 6.20313,-13.8125q0,-6.25 -3.54688,-10.60938q-3.53125,-4.34375 -9.82812,-5.90625q7.125,-1.65625 11.09375,-6.5q3.98437,-4.82812 3.98437,-11.79687q0,-10.60938 -6.46875,-16.28125q-6.46875,-5.65626 -18.53125,-5.65626q-12.04687,0 -18.53125,5.65626q-6.46875,5.67187 -6.46875,16.28125q0,6.96875 4,11.79687q4.01563,4.84375 11.14063,6.5zm-3.60938,15.57813q0,-5.65625 3.53125,-8.82813q3.54688,-3.17187 9.9375,-3.17187q6.35938,0 9.9375,3.17187q3.59375,3.17188 3.59375,8.82813q0,5.67187 -3.59375,8.84375q-3.57812,3.17187 -9.9375,3.17187q-6.39062,0 -9.9375,-3.17187q-3.53125,-3.17188 -3.53125,-8.84375z"/>
  <path style="vector-effect: non-scaling-stroke;" stroke="null" id="DejaVuSans-51-9" d="m40.57813,39.3125q7.07812,-1.51562 11.04687,-6.3125q3.98438,-4.78125 3.98438,-11.8125q0,-10.78125 -7.42188,-16.70312q-7.42187,-5.90626 -21.09375,-5.90626q-4.57812,0 -9.4375,0.90625q-4.85937,0.90626 -10.03125,2.71876l0,9.51562q4.09375,-2.39062 8.96875,-3.60937q4.89063,-1.21875 10.21875,-1.21875q9.26563,0 14.125,3.65625q4.85938,3.65625 4.85938,10.64062q0,6.45313 -4.51563,10.07813q-4.51562,3.64062 -12.5625,3.64062l-8.5,0l0,8.10938l8.89063,0q7.26562,0 11.125,2.90625q3.85937,2.90625 3.85937,8.375q0,5.60937 -3.98437,8.60937q-3.96875,3.01563 -11.39063,3.01563q-4.0625,0 -8.70312,-0.89063q-4.64063,-0.875 -10.20313,-2.71875l0,8.78125q5.625,1.5625 10.53125,2.34375q4.90625,0.78125 9.25,0.78125q11.23438,0 17.76563,-5.10938q6.54687,-5.09375 6.54687,-13.78125q0,-6.0625 -3.46875,-10.23437q-3.46875,-4.17188 -9.85937,-5.78125z"/>
  <path style="vector-effect: non-scaling-stroke;" stroke="null" id="DejaVuSans-73" d="m9.8125,72.90625l9.85938,0l0,-72.90625l-9.85938,0l0,72.90625z"/>
  <path style="vector-effect: non-scaling-stroke;" stroke="null" id="DejaVuSans-78" d="m9.8125,72.90625l13.28125,0l32.32813,-60.98437l0,60.98437l9.5625,0l0,-72.90625l-13.28125,0l-32.3125,60.98438l0,-60.98438l-9.57813,0l0,72.90625z"/>
  <path style="vector-effect: non-scaling-stroke;" stroke="null" id="DejaVuSans-84" d="m-0.29688,72.90625l61.67188,0l0,-8.3125l-25.875,0l0,-64.59375l-9.90625,0l0,64.59375l-25.89063,0l0,8.3125z"/>
  <path style="vector-effect: non-scaling-stroke;" stroke="null" id="DejaVuSans-71" d="m59.51563,10.40625l0,19.57813l-16.10938,0l0,8.10937l25.875,0l0,-31.3125q-5.70312,-4.04687 -12.59375,-6.125q-6.875,-2.07813 -14.6875,-2.07813q-17.09375,0 -26.75,9.98438q-9.64062,10 -9.64062,27.8125q0,17.875 9.64062,27.85938q9.65625,9.98437 26.75,9.98437q7.125,0 13.54688,-1.76562q6.42187,-1.75 11.84375,-5.17188l0,-10.5q-5.46875,4.64063 -11.625,6.98438q-6.15625,2.34375 -12.9375,2.34375q-13.39063,0 -20.10938,-7.46875q-6.70312,-7.46875 -6.70312,-22.26563q0,-14.75 6.70312,-22.21875q6.71875,-7.46875 20.10938,-7.46875q5.21875,0 9.3125,0.90625q4.10937,0.90625 7.375,2.8125z"/>
  <path style="vector-effect: non-scaling-stroke;" stroke="null" id="DejaVuSans-114-1" d="m41.10938,46.29688q-1.51563,0.875 -3.29688,1.28125q-1.78125,0.42187 -3.92187,0.42187q-7.625,0 -11.70313,-4.95312q-4.07812,-4.95313 -4.07812,-14.23438l0,-28.8125l-9.03125,0l0,54.6875l9.03125,0l0,-8.5q2.84375,4.98438 7.375,7.39063q4.54687,2.42187 11.04687,2.42187q0.92188,0 2.04688,-0.125q1.125,-0.10937 2.48437,-0.35938l0.04688,-9.21874z"/>
  <path style="vector-effect: non-scaling-stroke;" stroke="null" id="DejaVuSans-102-5" d="m37.10938,75.98438l0,-7.48438l-8.59375,0q-4.82813,0 -6.71875,-1.95313q-1.875,-1.95312 -1.875,-7.03125l0,-4.82812l14.79687,0l0,-6.98437l-14.79687,0l0,-47.70313l-9.03125,0l0,47.70313l-8.59375,0l0,6.98437l8.59375,0l0,3.8125q0,9.125 4.25,13.29688q4.25,4.1875 13.46875,4.1875l8.5,0z"/>
  <path style="vector-effect: non-scaling-stroke;" stroke="null" id="DejaVuSans-98-7" d="m48.6875,27.29688q0,9.90625 -4.07812,15.54687q-4.07813,5.64063 -11.20313,5.64063q-7.14062,0 -11.21875,-5.64063q-4.07812,-5.64062 -4.07812,-15.54687q0,-9.90625 4.07812,-15.54688q4.07813,-5.64062 11.21875,-5.64062q7.125,0 11.20313,5.64062q4.07812,5.64063 4.07812,15.54688zm-30.57812,19.09375q2.84375,4.875 7.15625,7.23437q4.32812,2.375 10.32812,2.375q9.96875,0 16.1875,-7.90625q6.23438,-7.90625 6.23438,-20.79687q0,-12.89063 -6.23438,-20.8125q-6.21875,-7.90626 -16.1875,-7.90626q-6,0 -10.32812,2.37501q-4.3125,2.375 -7.15625,7.25l0,-8.20313l-9.03125,0l0,75.98438l9.03125,0l0,-29.59375z"/>
  <path style="vector-effect: non-scaling-stroke;" stroke="null" id="DejaVuSans-103-8" d="m45.40625,27.98438q0,9.76562 -4.03125,15.125q-4.01562,5.375 -11.29687,5.375q-7.21875,0 -11.25,-5.375q-4.03125,-5.35938 -4.03125,-15.125q0,-9.71875 4.03125,-15.09375q4.03125,-5.375 11.25,-5.375q7.28125,0 11.29687,5.375q4.03125,5.375 4.03125,15.09375zm8.98438,-21.20313q0,-13.95313 -6.20313,-20.76563q-6.1875,-6.8125 -18.98437,-6.8125q-4.73438,0 -8.9375,0.70313q-4.20313,0.70313 -8.15625,2.17188l0,8.73437q3.95312,-2.14063 7.8125,-3.15625q3.85937,-1.03125 7.85937,-1.03125q8.84375,0 13.23438,4.60937q4.39062,4.60938 4.39062,13.93751l0,4.45312q-2.78125,-4.84375 -7.125,-7.23437q-4.34375,-2.39063 -10.40625,-2.39063q-10.04687,0 -16.20312,7.65625q-6.15625,7.67188 -6.15625,20.32813q0,12.6875 6.15625,20.34375q6.15625,7.67187 16.20312,7.67187q6.0625,0 10.40625,-2.39062q4.34375,-2.39063 7.125,-7.21875l0,8.29687l8.98438,0l0,-47.90625z"/>
  <path style="vector-effect: non-scaling-stroke;" stroke="null" id="DejaVuSans-101-6" d="m56.20313,29.59375l0,-4.39062l-41.3125,0q0.59375,-9.28125 5.59375,-14.14063q5,-4.85937 13.9375,-4.85937q5.17187,0 10.03125,1.26562q4.85937,1.26563 9.65625,3.8125l0,-8.5q-4.84375,-2.04687 -9.92188,-3.125q-5.07812,-1.07813 -10.29687,-1.07813q-13.09375,0 -20.73438,7.60938q-7.64062,7.625 -7.64062,20.625q0,13.42188 7.25,21.29688q7.25,7.89062 19.5625,7.89062q11.03125,0 17.45312,-7.10937q6.42188,-7.09375 6.42188,-19.29688zm-8.98438,2.64063q-0.09375,7.35937 -4.125,11.75q-4.03125,4.40625 -10.67187,4.40625q-7.51563,0 -12.03125,-4.25q-4.51563,-4.25 -5.20313,-11.96875l32.03125,0.0625z"/>
  <clipPath style="vector-effect: non-scaling-stroke;" stroke="null" id="pea4ab10e80">
   <rect style="vector-effect: non-scaling-stroke;" stroke="null" id="rect9607" y="-1604.95457" x="61.44603" width="207.25" height="307.23999"/>
  </clipPath>
  <style style="vector-effect: non-scaling-stroke;" stroke="null" type="text/css">*{stroke-linecap:butt;stroke-linejoin:round;}</style>
  <path stroke="#000000" style="vector-effect: non-scaling-stroke;" stroke-width="0.8" id="m32f0da8891" d="m0,0l0,3.5"/>
  <path style="vector-effect: non-scaling-stroke;" stroke="null" id="DejaVuSans-48-5" d="m31.78125,66.40625q-7.60937,0 -11.45312,-7.5q-3.82813,-7.48437 -3.82813,-22.53125q0,-14.98437 3.82813,-22.48437q3.84375,-7.5 11.45312,-7.5q7.67188,0 11.5,7.5q3.84375,7.5 3.84375,22.48437q0,15.04688 -3.84375,22.53125q-3.82812,7.5 -11.5,7.5zm0,7.8125q12.26563,0 18.73438,-9.70312q6.46875,-9.6875 6.46875,-28.14063q0,-18.40625 -6.46875,-28.10937q-6.46875,-9.68751 -18.73438,-9.68751q-12.25,0 -18.71875,9.68751q-6.46875,9.70312 -6.46875,28.10937q0,18.45313 6.46875,28.14063q6.46875,9.70312 18.71875,9.70312z"/>
  <path style="vector-effect: non-scaling-stroke;" stroke="null" id="DejaVuSans-53-0" d="m10.79688,72.90625l38.71875,0l0,-8.3125l-29.6875,0l0,-17.85937q2.14062,0.73437 4.28125,1.09375q2.15625,0.35937 4.3125,0.35937q12.20312,0 19.32812,-6.6875q7.14063,-6.6875 7.14063,-18.10937q0,-11.76563 -7.32813,-18.29688q-7.32812,-6.51563 -20.65625,-6.51563q-4.59375,0 -9.35937,0.78125q-4.75,0.78125 -9.82813,2.34375l0,9.92188q4.39063,-2.39062 9.07813,-3.5625q4.6875,-1.17187 9.90625,-1.17187q8.45312,0 13.375,4.4375q4.9375,4.4375 4.9375,12.0625q0,7.60937 -4.9375,12.04687q-4.92188,4.45313 -13.375,4.45313q-3.95313,0 -7.89063,-0.875q-3.92187,-0.875 -8.01562,-2.73438l0,36.625z"/>
  <path style="vector-effect: non-scaling-stroke;" stroke="null" id="DejaVuSans-49-4" d="m12.40625,8.29688l16.10938,0l0,55.625l-17.53125,-3.51563l0,8.98438l17.4375,3.51562l9.85937,0l0,-64.60937l16.10938,0l0,-8.29688l-41.98438,0l0,8.29688z"/>
  <path style="vector-effect: non-scaling-stroke;" stroke="null" id="DejaVuSans-50-4" d="m19.1875,8.29688l34.42188,0l0,-8.29688l-46.28125,0l0,8.29688q5.60937,5.8125 15.29687,15.59375q9.70313,9.79687 12.1875,12.64062q4.73438,5.3125 6.60938,9q1.89062,3.6875 1.89062,7.25q0,5.8125 -4.07812,9.46875q-4.07813,3.67188 -10.625,3.67188q-4.64063,0 -9.79688,-1.60938q-5.14062,-1.60937 -11,-4.89062l0,9.96875q5.95313,2.39062 11.125,3.60937q5.1875,1.21875 9.48438,1.21875q11.32812,0 18.0625,-5.67187q6.73437,-5.65625 6.73437,-15.125q0,-4.5 -1.6875,-8.53125q-1.67187,-4.01563 -6.125,-9.48438q-1.21875,-1.42187 -7.76562,-8.1875q-6.53125,-6.76562 -18.45313,-18.92187z"/>
  <path style="vector-effect: non-scaling-stroke;" stroke="null" id="DejaVuSans-109-6" d="m52,44.1875q3.375,6.0625 8.0625,8.9375q4.6875,2.875 11.03125,2.875q8.54688,0 13.1875,-5.98437q4.64063,-5.96875 4.64063,-17l0,-33.01563l-9.03125,0l0,32.71875q0,7.85938 -2.79688,11.65625q-2.78125,3.8125 -8.48437,3.8125q-6.98438,0 -11.04688,-4.64062q-4.04687,-4.625 -4.04687,-12.64063l0,-30.90625l-9.03125,0l0,32.71875q0,7.90625 -2.78125,11.6875q-2.78125,3.78125 -8.59375,3.78125q-6.89063,0 -10.95313,-4.65625q-4.04687,-4.65625 -4.04687,-12.625l0,-30.90625l-9.03125,0l0,54.6875l9.03125,0l0,-8.5q3.07812,5.03125 7.375,7.42188q4.29687,2.39062 10.20312,2.39062q5.96875,0 10.14063,-3.03125q4.17187,-3.01562 6.17187,-8.78125z"/>
  <path style="vector-effect: non-scaling-stroke;" stroke="null" id="DejaVuSans-117-4" d="m8.5,21.57813l0,33.10937l8.98438,0l0,-32.76562q0,-7.76563 3.01562,-11.65625q3.03125,-3.875 9.09375,-3.875q7.26563,0 11.48438,4.64062q4.23437,4.64063 4.23437,12.65625l0,31l8.98438,0l0,-54.6875l-8.98438,0l0,8.40625q-3.26562,-4.98437 -7.59375,-7.40625q-4.3125,-2.42188 -10.03125,-2.42188q-9.42187,0 -14.3125,5.85938q-4.875,5.85938 -4.875,17.14063zm22.60938,34.42187z"/>
  <path style="vector-effect: non-scaling-stroke;" stroke="null" id="DejaVuSans-116-2" d="m18.3125,70.21875l0,-15.53125l18.5,0l0,-6.98437l-18.5,0l0,-29.6875q0,-6.6875 1.82813,-8.59375q1.82812,-1.90625 7.45312,-1.90625l9.21875,0l0,-7.51563l-9.21875,0q-10.40625,0 -14.35937,3.875q-3.95313,3.89063 -3.95313,14.14063l0,29.6875l-6.59375,0l0,6.98437l6.59375,0l0,15.53125l9.03125,0z"/>
  <path style="vector-effect: non-scaling-stroke;" stroke="null" id="DejaVuSans-97-5" d="m34.28125,27.48438q-10.89062,0 -15.09375,-2.48438q-4.20312,-2.48437 -4.20312,-8.5q0,-4.78125 3.15625,-7.59375q3.15625,-2.79687 8.5625,-2.79687q7.48437,0 12,5.29687q4.51562,5.29688 4.51562,14.07813l0,2l-8.9375,0zm17.92188,3.71875l0,-31.20313l-8.98438,0l0,8.29688q-3.07812,-4.96875 -7.67187,-7.34375q-4.59375,-2.37501 -11.23438,-2.37501q-8.39062,0 -13.35937,4.71876q-4.95313,4.71875 -4.95313,12.625q0,9.21875 6.17188,13.90625q6.1875,4.6875 18.4375,4.6875l12.60937,0l0,0.89062q0,6.20313 -4.07812,9.59375q-4.07813,3.39063 -11.45313,3.39063q-4.6875,0 -9.14062,-1.125q-4.4375,-1.125 -8.53125,-3.375l0,8.3125q4.92187,1.90625 9.5625,2.84375q4.64062,0.95312 9.03125,0.95312q11.875,0 17.73437,-6.15625q5.85938,-6.14062 5.85938,-18.64062z"/>
  <path style="vector-effect: non-scaling-stroke;" stroke="null" id="DejaVuSans-105-0" d="m9.42188,54.6875l8.98437,0l0,-54.6875l-8.98437,0l0,54.6875zm0,21.29688l8.98437,0l0,-11.39063l-8.98437,0l0,11.39063z"/>
  <path style="vector-effect: non-scaling-stroke;" stroke="null" id="DejaVuSans-111-9" d="m30.60938,48.39063q-7.21875,0 -11.42188,-5.64063q-4.20312,-5.64062 -4.20312,-15.45312q0,-9.8125 4.17187,-15.45313q4.1875,-5.64062 11.45313,-5.64062q7.1875,0 11.375,5.65625q4.20312,5.67187 4.20312,15.4375q0,9.71875 -4.20312,15.40625q-4.1875,5.6875 -11.375,5.6875zm0,7.60937q11.71875,0 18.40625,-7.625q6.70312,-7.60937 6.70312,-21.07812q0,-13.42188 -6.70312,-21.07813q-6.6875,-7.64063 -18.40625,-7.64063q-11.76563,0 -18.4375,7.64063q-6.65625,7.65625 -6.65625,21.07813q0,13.46875 6.65625,21.07812q6.67187,7.625 18.4375,7.625z"/>
  <path style="vector-effect: non-scaling-stroke;" stroke="null" id="DejaVuSans-110-12" d="m54.89063,33.01563l0,-33.01563l-8.98438,0l0,32.71875q0,7.76563 -3.03125,11.60938q-3.03125,3.85937 -9.07812,3.85937q-7.28125,0 -11.48438,-4.64062q-4.20312,-4.625 -4.20312,-12.64063l0,-30.90625l-9.03125,0l0,54.6875l9.03125,0l0,-8.5q3.23437,4.9375 7.59375,7.375q4.375,2.4375 10.09375,2.4375q9.42187,0 14.25,-5.82812q4.84375,-5.82813 4.84375,-17.15625z"/>
  <path style="vector-effect: non-scaling-stroke;" stroke="null" id="DejaVuSans-115-9" d="m44.28125,53.07813l0,-8.5q-3.79687,1.95312 -7.90625,2.92187q-4.09375,0.98438 -8.5,0.98438q-6.6875,0 -10.03125,-2.04688q-3.34375,-2.04687 -3.34375,-6.15625q0,-3.125 2.39063,-4.90625q2.39062,-1.78125 9.625,-3.39062l3.07812,-0.68751q9.5625,-2.04687 13.59375,-5.78124q4.03125,-3.73438 4.03125,-10.42188q0,-7.625 -6.03125,-12.07812q-6.03125,-4.43751 -16.57812,-4.43751q-4.39063,0 -9.15625,0.85938q-4.76563,0.85938 -10.03125,2.5625l0,9.28125q4.98437,-2.59375 9.8125,-3.89062q4.82812,-1.28125 9.57812,-1.28125q6.34375,0 9.75,2.17187q3.42188,2.17188 3.42188,6.125q0,3.65625 -2.46875,5.60938q-2.45313,1.95312 -10.8125,3.76562l-3.125,0.73438q-8.34375,1.75 -12.0625,5.39062q-3.70313,3.64063 -3.70313,9.98438q0,7.71875 5.46875,11.90625q5.46875,4.20312 15.53125,4.20312q4.96875,0 9.35938,-0.73437q4.40625,-0.71875 8.10937,-2.1875z"/>
  <path stroke="#000000" style="vector-effect: non-scaling-stroke;" stroke-width="0.8" id="m20838ce991" d="m0,0l-3.5,0"/>
  <path style="vector-effect: non-scaling-stroke;" stroke="null" id="DejaVuSans-79-0" d="m39.40625,66.21875q-10.75,0 -17.07812,-8.01562q-6.3125,-8 -6.3125,-21.82813q0,-13.76562 6.3125,-21.78125q6.32812,-8 17.07812,-8q10.73438,0 17.01563,8q6.28125,8.01563 6.28125,21.78125q0,13.82813 -6.28125,21.82813q-6.28125,8.01562 -17.01563,8.01562zm0,8q15.32813,0 24.5,-10.28125q9.1875,-10.28125 9.1875,-27.5625q0,-17.23437 -9.1875,-27.51562q-9.17187,-10.28126 -24.5,-10.28126q-15.375,0 -24.59375,10.25001q-9.20312,10.26562 -9.20312,27.54687q0,17.28125 9.20312,27.5625q9.21875,10.28125 24.59375,10.28125z"/>
  <path style="vector-effect: non-scaling-stroke;" stroke="null" id="DejaVuSans-82-3" d="m44.39063,34.1875q3.17187,-1.07812 6.17187,-4.59375q3,-3.51562 6.03125,-9.67187l10.01563,-19.92188l-10.60938,0l-9.3125,18.70313q-3.625,7.32812 -7.01562,9.71875q-3.39063,2.39062 -9.25,2.39062l-10.75,0l0,-30.8125l-9.85938,0l0,72.90625l22.26563,0q12.5,0 18.65625,-5.23437q6.15625,-5.21875 6.15625,-15.76563q0,-6.89062 -3.20313,-11.4375q-3.20312,-4.53125 -9.29687,-6.28125zm-24.71875,30.60938l0,-25.875l12.40625,0q7.125,0 10.76562,3.29687q3.64063,3.29688 3.64063,9.6875q0,6.39063 -3.64063,9.64063q-3.64062,3.25 -10.76562,3.25l-12.40625,0z"/>
  <path style="vector-effect: non-scaling-stroke;" stroke="null" id="DejaVuSans-70-2" d="m9.8125,72.90625l41.89063,0l0,-8.3125l-32.03125,0l0,-21.48437l28.90625,0l0,-8.29688l-28.90625,0l0,-34.8125l-9.85938,0l0,72.90625z"/>
  <path style="vector-effect: non-scaling-stroke;" stroke="null" id="DejaVuSans-54-4" d="m33.01563,40.375q-6.64063,0 -10.53125,-4.54687q-3.875,-4.53125 -3.875,-12.4375q0,-7.85938 3.875,-12.4375q3.89062,-4.5625 10.53125,-4.5625q6.64062,0 10.51562,4.5625q3.875,4.57812 3.875,12.4375q0,7.90625 -3.875,12.4375q-3.875,4.54687 -10.51562,4.54687zm19.57812,30.92188l0,-8.98438q-3.71875,1.75 -7.5,2.67188q-3.78125,0.9375 -7.5,0.9375q-9.76562,0 -14.92187,-6.59375q-5.14063,-6.59375 -5.875,-19.92188q2.875,4.25 7.21875,6.51563q4.35937,2.26562 9.57812,2.26562q10.98438,0 17.35938,-6.67187q6.375,-6.65625 6.375,-18.125q0,-11.23438 -6.64063,-18.03125q-6.64062,-6.78125 -17.67187,-6.78125q-12.65625,0 -19.34375,9.6875q-6.6875,9.70312 -6.6875,28.10937q0,17.28125 8.20312,27.5625q8.20313,10.28125 22.01563,10.28125q3.71875,0 7.5,-0.73437q3.78125,-0.73438 7.89062,-2.1875z"/>
  <path style="vector-effect: non-scaling-stroke;" stroke="null" id="DejaVuSans-83-3" d="m53.51563,70.51563l0,-9.625q-5.60938,2.6875 -10.59375,4q-4.98438,1.32812 -9.625,1.32812q-8.04688,0 -12.42188,-3.125q-4.375,-3.125 -4.375,-8.89062q0,-4.84375 2.90625,-7.3125q2.90625,-2.45313 11.01563,-3.96875l5.95312,-1.21875q11.03125,-2.10938 16.28125,-7.40625q5.25,-5.29688 5.25,-14.17188q0,-10.60937 -7.10937,-16.07812q-7.09375,-5.46876 -20.8125,-5.46876q-5.17188,0 -11.01563,1.17188q-5.82812,1.17188 -12.07812,3.46875l0,10.15625q6,-3.35937 11.76562,-5.07812q5.76563,-1.70313 11.32813,-1.70313q8.4375,0 13.03125,3.3125q4.59375,3.32813 4.59375,9.48438q0,5.35937 -3.29688,8.39062q-3.29687,3.03125 -10.8125,4.54688l-6.01562,1.17187q-11.03125,2.1875 -15.96875,6.875q-4.92188,4.6875 -4.92188,13.04688q0,9.67187 6.8125,15.23437q6.8125,5.5625 18.76563,5.5625q5.14062,0 10.45312,-0.9375q5.32813,-0.92188 10.89063,-2.76563l0,0.00002l0,-0.00001z"/>
  <path style="vector-effect: non-scaling-stroke;" stroke="null" id="DejaVuSans-95-0" d="m50.98438,-16.60938l0,-6.96875l-51.96876,0l0,6.96875l51.96876,0z"/>
  <path style="vector-effect: non-scaling-stroke;" stroke="null" id="DejaVuSans-66-60" d="m19.67188,34.8125l0,-26.70312l15.82812,0q7.95313,0 11.78125,3.29687q3.84375,3.29688 3.84375,10.07813q0,6.84375 -3.84375,10.07812q-3.82812,3.25 -11.78125,3.25l-15.82812,0zm0,29.98438l0,-21.96875l14.60937,0q7.21875,0 10.75,2.70312q3.54688,2.71875 3.54688,8.28125q0,5.51563 -3.54688,8.25q-3.53125,2.73438 -10.75,2.73438l-14.60937,0zm-9.85938,8.10937l25.20313,0q11.28125,0 17.375,-4.6875q6.10937,-4.6875 6.10937,-13.32812q0,-6.70313 -3.125,-10.65625q-3.125,-3.95313 -9.1875,-4.92188q7.28125,-1.5625 11.3125,-6.53125q4.03125,-4.95312 4.03125,-12.375q0,-9.76562 -6.64062,-15.09375q-6.64063,-5.3125 -18.90625,-5.3125l-26.17188,0l0,72.90625z"/>
  <path style="vector-effect: non-scaling-stroke;" stroke="null" id="DejaVuSans-68-4" d="m19.67188,64.79688l0,-56.6875l11.92187,0q15.09375,0 22.09375,6.82812q7,6.84375 7,21.59375q0,14.64063 -7,21.45313q-7,6.8125 -22.09375,6.8125l-11.92187,0zm-9.85938,8.10937l20.26563,0q21.1875,0 31.09375,-8.8125q9.92187,-8.8125 9.92187,-27.5625q0,-18.85937 -9.96875,-27.70312q-9.95312,-8.82813 -31.04687,-8.82813l-20.26563,0l0,72.90625z"/>
  <path style="vector-effect: non-scaling-stroke;" stroke="null" id="DejaVuSans-56-6" d="m31.78125,34.625q-7.03125,0 -11.0625,-3.76562q-4.01562,-3.76563 -4.01562,-10.34375q0,-6.59375 4.01562,-10.35938q4.03125,-3.76562 11.0625,-3.76562q7.03125,0 11.07813,3.78125q4.0625,3.79687 4.0625,10.34375q0,6.57812 -4.03125,10.34375q-4.01563,3.76562 -11.10938,3.76562zm-9.85937,4.1875q-6.34375,1.5625 -9.89063,5.90625q-3.53125,4.35938 -3.53125,10.60938q0,8.73437 6.21875,13.8125q6.23438,5.07812 17.0625,5.07812q10.89063,0 17.09375,-5.07812q6.20313,-5.07813 6.20313,-13.8125q0,-6.25 -3.54688,-10.60938q-3.53125,-4.34375 -9.82812,-5.90625q7.125,-1.65625 11.09375,-6.5q3.98437,-4.82812 3.98437,-11.79687q0,-10.60938 -6.46875,-16.28125q-6.46875,-5.65626 -18.53125,-5.65626q-12.04687,0 -18.53125,5.65626q-6.46875,5.67187 -6.46875,16.28125q0,6.96875 4,11.79687q4.01563,4.84375 11.14063,6.5zm-3.60938,15.57813q0,-5.65625 3.53125,-8.82813q3.54688,-3.17187 9.9375,-3.17187q6.35938,0 9.9375,3.17187q3.59375,3.17188 3.59375,8.82813q0,5.67187 -3.59375,8.84375q-3.57812,3.17187 -9.9375,3.17187q-6.39062,0 -9.9375,-3.17187q-3.53125,-3.17188 -3.53125,-8.84375z"/>
  <path style="vector-effect: non-scaling-stroke;" stroke="null" id="DejaVuSans-55-8" d="m8.20313,72.90625l46.875,0l0,-4.20312l-26.46875,-68.70313l-10.29688,0l24.90625,64.59375l-35.01562,0l0,8.3125z"/>
  <path style="vector-effect: non-scaling-stroke;" stroke="null" id="DejaVuSans-69-7" d="m9.8125,72.90625l46.09375,0l0,-8.3125l-36.23437,0l0,-21.57812l34.71875,0l0,-8.29688l-34.71875,0l0,-26.42187l37.10937,0l0,-8.29688l-46.96875,0l0,72.90625z"/>
  <path style="vector-effect: non-scaling-stroke;" stroke="null" id="DejaVuSans-77-1" d="m9.8125,72.90625l14.70313,0l18.59375,-49.60937l18.70312,49.60937l14.70313,0l0,-72.90625l-9.625,0l0,64.01563l-18.79688,-50l-9.90625,0l-18.79687,50l0,-64.01563l-9.57813,0l0,72.90625z"/>
  <path style="vector-effect: non-scaling-stroke;" stroke="null" id="DejaVuSans-51-3" d="m40.57813,39.3125q7.07812,-1.51562 11.04687,-6.3125q3.98438,-4.78125 3.98438,-11.8125q0,-10.78125 -7.42188,-16.70312q-7.42187,-5.90626 -21.09375,-5.90626q-4.57812,0 -9.4375,0.90625q-4.85937,0.90626 -10.03125,2.71876l0,9.51562q4.09375,-2.39062 8.96875,-3.60937q4.89063,-1.21875 10.21875,-1.21875q9.26563,0 14.125,3.65625q4.85938,3.65625 4.85938,10.64062q0,6.45313 -4.51563,10.07813q-4.51562,3.64062 -12.5625,3.64062l-8.5,0l0,8.10938l8.89063,0q7.26562,0 11.125,2.90625q3.85937,2.90625 3.85937,8.375q0,5.60937 -3.98437,8.60937q-3.96875,3.01563 -11.39063,3.01563q-4.0625,0 -8.70312,-0.89063q-4.64063,-0.875 -10.20313,-2.71875l0,8.78125q5.625,1.5625 10.53125,2.34375q4.90625,0.78125 9.25,0.78125q11.23438,0 17.76563,-5.10938q6.54687,-5.09375 6.54687,-13.78125q0,-6.0625 -3.46875,-10.23437q-3.46875,-4.17188 -9.85937,-5.78125z"/>
  <path style="vector-effect: non-scaling-stroke;" stroke="null" id="DejaVuSans-73-4" d="m9.8125,72.90625l9.85938,0l0,-72.90625l-9.85938,0l0,72.90625z"/>
  <path style="vector-effect: non-scaling-stroke;" stroke="null" id="DejaVuSans-78-4" d="m9.8125,72.90625l13.28125,0l32.32813,-60.98437l0,60.98437l9.5625,0l0,-72.90625l-13.28125,0l-32.3125,60.98438l0,-60.98438l-9.57813,0l0,72.90625z"/>
  <path style="vector-effect: non-scaling-stroke;" stroke="null" id="DejaVuSans-84-8" d="m-0.29688,72.90625l61.67188,0l0,-8.3125l-25.875,0l0,-64.59375l-9.90625,0l0,64.59375l-25.89063,0l0,8.3125z"/>
  <path style="vector-effect: non-scaling-stroke;" stroke="null" id="DejaVuSans-71-8" d="m59.51563,10.40625l0,19.57813l-16.10938,0l0,8.10937l25.875,0l0,-31.3125q-5.70312,-4.04687 -12.59375,-6.125q-6.875,-2.07813 -14.6875,-2.07813q-17.09375,0 -26.75,9.98438q-9.64062,10 -9.64062,27.8125q0,17.875 9.64062,27.85938q9.65625,9.98437 26.75,9.98437q7.125,0 13.54688,-1.76562q6.42187,-1.75 11.84375,-5.17188l0,-10.5q-5.46875,4.64063 -11.625,6.98438q-6.15625,2.34375 -12.9375,2.34375q-13.39063,0 -20.10938,-7.46875q-6.70312,-7.46875 -6.70312,-22.26563q0,-14.75 6.70312,-22.21875q6.71875,-7.46875 20.10938,-7.46875q5.21875,0 9.3125,0.90625q4.10937,0.90625 7.375,2.8125z"/>
  <path style="vector-effect: non-scaling-stroke;" stroke="null" id="DejaVuSans-114-0" d="m41.10938,46.29688q-1.51563,0.875 -3.29688,1.28125q-1.78125,0.42187 -3.92187,0.42187q-7.625,0 -11.70313,-4.95312q-4.07812,-4.95313 -4.07812,-14.23438l0,-28.8125l-9.03125,0l0,54.6875l9.03125,0l0,-8.5q2.84375,4.98438 7.375,7.39063q4.54687,2.42187 11.04687,2.42187q0.92188,0 2.04688,-0.125q1.125,-0.10937 2.48437,-0.35938l0.04688,-9.21874z"/>
  <path style="vector-effect: non-scaling-stroke;" stroke="null" id="DejaVuSans-102-7" d="m37.10938,75.98438l0,-7.48438l-8.59375,0q-4.82813,0 -6.71875,-1.95313q-1.875,-1.95312 -1.875,-7.03125l0,-4.82812l14.79687,0l0,-6.98437l-14.79687,0l0,-47.70313l-9.03125,0l0,47.70313l-8.59375,0l0,6.98437l8.59375,0l0,3.8125q0,9.125 4.25,13.29688q4.25,4.1875 13.46875,4.1875l8.5,0z"/>
  <path style="vector-effect: non-scaling-stroke;" stroke="null" id="DejaVuSans-98-3" d="m48.6875,27.29688q0,9.90625 -4.07812,15.54687q-4.07813,5.64063 -11.20313,5.64063q-7.14062,0 -11.21875,-5.64063q-4.07812,-5.64062 -4.07812,-15.54687q0,-9.90625 4.07812,-15.54688q4.07813,-5.64062 11.21875,-5.64062q7.125,0 11.20313,5.64062q4.07812,5.64063 4.07812,15.54688zm-30.57812,19.09375q2.84375,4.875 7.15625,7.23437q4.32812,2.375 10.32812,2.375q9.96875,0 16.1875,-7.90625q6.23438,-7.90625 6.23438,-20.79687q0,-12.89063 -6.23438,-20.8125q-6.21875,-7.90626 -16.1875,-7.90626q-6,0 -10.32812,2.37501q-4.3125,2.375 -7.15625,7.25l0,-8.20313l-9.03125,0l0,75.98438l9.03125,0l0,-29.59375z"/>
  <path style="vector-effect: non-scaling-stroke;" stroke="null" id="DejaVuSans-103-87" d="m45.40625,27.98438q0,9.76562 -4.03125,15.125q-4.01562,5.375 -11.29687,5.375q-7.21875,0 -11.25,-5.375q-4.03125,-5.35938 -4.03125,-15.125q0,-9.71875 4.03125,-15.09375q4.03125,-5.375 11.25,-5.375q7.28125,0 11.29687,5.375q4.03125,5.375 4.03125,15.09375zm8.98438,-21.20313q0,-13.95313 -6.20313,-20.76563q-6.1875,-6.8125 -18.98437,-6.8125q-4.73438,0 -8.9375,0.70313q-4.20313,0.70313 -8.15625,2.17188l0,8.73437q3.95312,-2.14063 7.8125,-3.15625q3.85937,-1.03125 7.85937,-1.03125q8.84375,0 13.23438,4.60937q4.39062,4.60938 4.39062,13.93751l0,4.45312q-2.78125,-4.84375 -7.125,-7.23437q-4.34375,-2.39063 -10.40625,-2.39063q-10.04687,0 -16.20312,7.65625q-6.15625,7.67188 -6.15625,20.32813q0,12.6875 6.15625,20.34375q6.15625,7.67187 16.20312,7.67187q6.0625,0 10.40625,-2.39062q4.34375,-2.39063 7.125,-7.21875l0,8.29687l8.98438,0l0,-47.90625z"/>
  <path style="vector-effect: non-scaling-stroke;" stroke="null" id="DejaVuSans-101-5" d="m56.20313,29.59375l0,-4.39062l-41.3125,0q0.59375,-9.28125 5.59375,-14.14063q5,-4.85937 13.9375,-4.85937q5.17187,0 10.03125,1.26562q4.85937,1.26563 9.65625,3.8125l0,-8.5q-4.84375,-2.04687 -9.92188,-3.125q-5.07812,-1.07813 -10.29687,-1.07813q-13.09375,0 -20.73438,7.60938q-7.64062,7.625 -7.64062,20.625q0,13.42188 7.25,21.29688q7.25,7.89062 19.5625,7.89062q11.03125,0 17.45312,-7.10937q6.42188,-7.09375 6.42188,-19.29688zm-8.98438,2.64063q-0.09375,7.35937 -4.125,11.75q-4.03125,4.40625 -10.67187,4.40625q-7.51563,0 -12.03125,-4.25q-4.51563,-4.25 -5.20313,-11.96875l32.03125,0.0625z"/>
  <clipPath style="vector-effect: non-scaling-stroke;" stroke="null" id="p20e4ccdd53">
   <rect style="vector-effect: non-scaling-stroke;" stroke="null" id="rect14812" y="-1604.95457" x="61.44603" width="207.25" height="307.23999"/>
  </clipPath>
  <style style="vector-effect: non-scaling-stroke;" stroke="null" type="text/css">*{stroke-linecap:butt;stroke-linejoin:round;}</style>
  <path stroke="#000000" style="vector-effect: non-scaling-stroke;" stroke-width="0.8" id="mf393b82ae6" d="m0,0l0,3.5"/>
  <path style="vector-effect: non-scaling-stroke;" stroke="null" id="DejaVuSans-48-7" d="m31.78125,66.40625q-7.60937,0 -11.45312,-7.5q-3.82813,-7.48437 -3.82813,-22.53125q0,-14.98437 3.82813,-22.48437q3.84375,-7.5 11.45312,-7.5q7.67188,0 11.5,7.5q3.84375,7.5 3.84375,22.48437q0,15.04688 -3.84375,22.53125q-3.82812,7.5 -11.5,7.5zm0,7.8125q12.26563,0 18.73438,-9.70312q6.46875,-9.6875 6.46875,-28.14063q0,-18.40625 -6.46875,-28.10937q-6.46875,-9.68751 -18.73438,-9.68751q-12.25,0 -18.71875,9.68751q-6.46875,9.70312 -6.46875,28.10937q0,18.45313 6.46875,28.14063q6.46875,9.70312 18.71875,9.70312z"/>
  <path style="vector-effect: non-scaling-stroke;" stroke="null" id="DejaVuSans-50-3" d="m19.1875,8.29688l34.42188,0l0,-8.29688l-46.28125,0l0,8.29688q5.60937,5.8125 15.29687,15.59375q9.70313,9.79687 12.1875,12.64062q4.73438,5.3125 6.60938,9q1.89062,3.6875 1.89062,7.25q0,5.8125 -4.07812,9.46875q-4.07813,3.67188 -10.625,3.67188q-4.64063,0 -9.79688,-1.60938q-5.14062,-1.60937 -11,-4.89062l0,9.96875q5.95313,2.39062 11.125,3.60937q5.1875,1.21875 9.48438,1.21875q11.32812,0 18.0625,-5.67187q6.73437,-5.65625 6.73437,-15.125q0,-4.5 -1.6875,-8.53125q-1.67187,-4.01563 -6.125,-9.48438q-1.21875,-1.42187 -7.76562,-8.1875q-6.53125,-6.76562 -18.45313,-18.92187z"/>
  <path style="vector-effect: non-scaling-stroke;" stroke="null" id="DejaVuSans-52-7" d="m37.79688,64.3125l-24.90625,-38.92187l24.90625,0l0,38.92187zm-2.59375,8.59375l12.40625,0l0,-47.51562l10.40625,0l0,-8.20313l-10.40625,0l0,-17.1875l-9.8125,0l0,17.1875l-32.90625,0l0,9.51563l30.3125,46.20312z"/>
  <path style="vector-effect: non-scaling-stroke;" stroke="null" id="DejaVuSans-54-9" d="m33.01563,40.375q-6.64063,0 -10.53125,-4.54687q-3.875,-4.53125 -3.875,-12.4375q0,-7.85938 3.875,-12.4375q3.89062,-4.5625 10.53125,-4.5625q6.64062,0 10.51562,4.5625q3.875,4.57812 3.875,12.4375q0,7.90625 -3.875,12.4375q-3.875,4.54687 -10.51562,4.54687zm19.57812,30.92188l0,-8.98438q-3.71875,1.75 -7.5,2.67188q-3.78125,0.9375 -7.5,0.9375q-9.76562,0 -14.92187,-6.59375q-5.14063,-6.59375 -5.875,-19.92188q2.875,4.25 7.21875,6.51563q4.35937,2.26562 9.57812,2.26562q10.98438,0 17.35938,-6.67187q6.375,-6.65625 6.375,-18.125q0,-11.23438 -6.64063,-18.03125q-6.64062,-6.78126 -17.67187,-6.78126q-12.65625,0 -19.34375,9.68751q-6.6875,9.70312 -6.6875,28.10937q0,17.28125 8.20312,27.5625q8.20313,10.28125 22.01563,10.28125q3.71875,0 7.5,-0.73437q3.78125,-0.73438 7.89062,-2.1875z"/>
  <path style="vector-effect: non-scaling-stroke;" stroke="null" id="DejaVuSans-56-0" d="m31.78125,34.625q-7.03125,0 -11.0625,-3.76562q-4.01562,-3.76563 -4.01562,-10.34375q0,-6.59375 4.01562,-10.35938q4.03125,-3.76562 11.0625,-3.76562q7.03125,0 11.07813,3.78125q4.0625,3.79687 4.0625,10.34375q0,6.57812 -4.03125,10.34375q-4.01563,3.76562 -11.10938,3.76562zm-9.85937,4.1875q-6.34375,1.5625 -9.89063,5.90625q-3.53125,4.35938 -3.53125,10.60938q0,8.73437 6.21875,13.8125q6.23438,5.07812 17.0625,5.07812q10.89063,0 17.09375,-5.07812q6.20313,-5.07813 6.20313,-13.8125q0,-6.25 -3.54688,-10.60938q-3.53125,-4.34375 -9.82812,-5.90625q7.125,-1.65625 11.09375,-6.5q3.98437,-4.82812 3.98437,-11.79687q0,-10.60938 -6.46875,-16.28125q-6.46875,-5.65626 -18.53125,-5.65626q-12.04687,0 -18.53125,5.65626q-6.46875,5.67187 -6.46875,16.28125q0,6.96875 4,11.79687q4.01563,4.84375 11.14063,6.5zm-3.60938,15.57813q0,-5.65625 3.53125,-8.82813q3.54688,-3.17187 9.9375,-3.17187q6.35938,0 9.9375,3.17187q3.59375,3.17188 3.59375,8.82813q0,5.67187 -3.59375,8.84375q-3.57812,3.17187 -9.9375,3.17187q-6.39062,0 -9.9375,-3.17187q-3.53125,-3.17188 -3.53125,-8.84375z"/>
  <path style="vector-effect: non-scaling-stroke;" stroke="null" id="DejaVuSans-109-2" d="m52,44.1875q3.375,6.0625 8.0625,8.9375q4.6875,2.875 11.03125,2.875q8.54688,0 13.1875,-5.98437q4.64063,-5.96875 4.64063,-17l0,-33.01563l-9.03125,0l0,32.71875q0,7.85938 -2.79688,11.65625q-2.78125,3.8125 -8.48437,3.8125q-6.98438,0 -11.04688,-4.64062q-4.04687,-4.625 -4.04687,-12.64063l0,-30.90625l-9.03125,0l0,32.71875q0,7.90625 -2.78125,11.6875q-2.78125,3.78125 -8.59375,3.78125q-6.89063,0 -10.95313,-4.65625q-4.04687,-4.65625 -4.04687,-12.625l0,-30.90625l-9.03125,0l0,54.6875l9.03125,0l0,-8.5q3.07812,5.03125 7.375,7.42188q4.29687,2.39062 10.20312,2.39062q5.96875,0 10.14063,-3.03125q4.17187,-3.01562 6.17187,-8.78125z"/>
  <path style="vector-effect: non-scaling-stroke;" stroke="null" id="DejaVuSans-117-3" d="m8.5,21.57813l0,33.10937l8.98438,0l0,-32.76562q0,-7.76563 3.01562,-11.65625q3.03125,-3.875 9.09375,-3.875q7.26563,0 11.48438,4.64062q4.23437,4.64063 4.23437,12.65625l0,31l8.98438,0l0,-54.6875l-8.98438,0l0,8.40625q-3.26562,-4.98437 -7.59375,-7.40625q-4.3125,-2.42188 -10.03125,-2.42188q-9.42187,0 -14.3125,5.85938q-4.875,5.85938 -4.875,17.14063zm22.60938,34.42187z"/>
  <path style="vector-effect: non-scaling-stroke;" stroke="null" id="DejaVuSans-116-9" d="m18.3125,70.21875l0,-15.53125l18.5,0l0,-6.98437l-18.5,0l0,-29.6875q0,-6.6875 1.82813,-8.59375q1.82812,-1.90625 7.45312,-1.90625l9.21875,0l0,-7.51563l-9.21875,0q-10.40625,0 -14.35937,3.875q-3.95313,3.89063 -3.95313,14.14063l0,29.6875l-6.59375,0l0,6.98437l6.59375,0l0,15.53125l9.03125,0z"/>
  <path style="vector-effect: non-scaling-stroke;" stroke="null" id="DejaVuSans-97-9" d="m34.28125,27.48438q-10.89062,0 -15.09375,-2.48438q-4.20312,-2.48437 -4.20312,-8.5q0,-4.78125 3.15625,-7.59375q3.15625,-2.79687 8.5625,-2.79687q7.48437,0 12,5.29687q4.51562,5.29688 4.51562,14.07813l0,2l-8.9375,0zm17.92188,3.71875l0,-31.20313l-8.98438,0l0,8.29688q-3.07812,-4.96875 -7.67187,-7.34375q-4.59375,-2.37501 -11.23438,-2.37501q-8.39062,0 -13.35937,4.71876q-4.95313,4.71875 -4.95313,12.625q0,9.21875 6.17188,13.90625q6.1875,4.6875 18.4375,4.6875l12.60937,0l0,0.89062q0,6.20313 -4.07812,9.59375q-4.07813,3.39063 -11.45313,3.39063q-4.6875,0 -9.14062,-1.125q-4.4375,-1.125 -8.53125,-3.375l0,8.3125q4.92187,1.90625 9.5625,2.84375q4.64062,0.95312 9.03125,0.95312q11.875,0 17.73437,-6.15625q5.85938,-6.14062 5.85938,-18.64062z"/>
  <path style="vector-effect: non-scaling-stroke;" stroke="null" id="DejaVuSans-105-7" d="m9.42188,54.6875l8.98437,0l0,-54.6875l-8.98437,0l0,54.6875zm0,21.29688l8.98437,0l0,-11.39063l-8.98437,0l0,11.39063z"/>
  <path style="vector-effect: non-scaling-stroke;" stroke="null" id="DejaVuSans-111-0" d="m30.60938,48.39063q-7.21875,0 -11.42188,-5.64063q-4.20312,-5.64062 -4.20312,-15.45312q0,-9.8125 4.17187,-15.45313q4.1875,-5.64062 11.45313,-5.64062q7.1875,0 11.375,5.65625q4.20312,5.67187 4.20312,15.4375q0,9.71875 -4.20312,15.40625q-4.1875,5.6875 -11.375,5.6875zm0,7.60937q11.71875,0 18.40625,-7.625q6.70312,-7.60937 6.70312,-21.07812q0,-13.42188 -6.70312,-21.07813q-6.6875,-7.64063 -18.40625,-7.64063q-11.76563,0 -18.4375,7.64063q-6.65625,7.65625 -6.65625,21.07813q0,13.46875 6.65625,21.07812q6.67187,7.625 18.4375,7.625z"/>
  <path style="vector-effect: non-scaling-stroke;" stroke="null" id="DejaVuSans-110-3" d="m54.89063,33.01563l0,-33.01563l-8.98438,0l0,32.71875q0,7.76563 -3.03125,11.60938q-3.03125,3.85937 -9.07812,3.85937q-7.28125,0 -11.48438,-4.64062q-4.20312,-4.625 -4.20312,-12.64063l0,-30.90625l-9.03125,0l0,54.6875l9.03125,0l0,-8.5q3.23437,4.9375 7.59375,7.375q4.375,2.4375 10.09375,2.4375q9.42187,0 14.25,-5.82812q4.84375,-5.82813 4.84375,-17.15625z"/>
  <path style="vector-effect: non-scaling-stroke;" stroke="null" id="DejaVuSans-115-98" d="m44.28125,53.07813l0,-8.5q-3.79687,1.95312 -7.90625,2.92187q-4.09375,0.98438 -8.5,0.98438q-6.6875,0 -10.03125,-2.04688q-3.34375,-2.04687 -3.34375,-6.15625q0,-3.125 2.39063,-4.90625q2.39062,-1.78125 9.625,-3.39062l3.07812,-0.6875q9.5625,-2.04688 13.59375,-5.78125q4.03125,-3.73438 4.03125,-10.42188q0,-7.625 -6.03125,-12.07812q-6.03125,-4.43751 -16.57812,-4.43751q-4.39063,0 -9.15625,0.85938q-4.76563,0.85938 -10.03125,2.5625l0,9.28125q4.98437,-2.59375 9.8125,-3.89062q4.82812,-1.28125 9.57812,-1.28125q6.34375,0 9.75,2.17187q3.42188,2.17188 3.42188,6.125q0,3.65625 -2.46875,5.60938q-2.45313,1.95312 -10.8125,3.76562l-3.125,0.73438q-8.34375,1.75 -12.0625,5.39062q-3.70313,3.64063 -3.70313,9.98438q0,7.71875 5.46875,11.90625q5.46875,4.20312 15.53125,4.20312q4.96875,0 9.35938,-0.73437q4.40625,-0.71875 8.10937,-2.1875z"/>
  <path stroke="#000000" style="vector-effect: non-scaling-stroke;" stroke-width="0.8" id="m1f9e6811bc" d="m0,0l-3.5,0"/>
  <path style="vector-effect: non-scaling-stroke;" stroke="null" id="DejaVuSans-114-6" d="m41.10938,46.29688q-1.51563,0.875 -3.29688,1.28125q-1.78125,0.42187 -3.92187,0.42187q-7.625,0 -11.70313,-4.95312q-4.07812,-4.95313 -4.07812,-14.23438l0,-28.8125l-9.03125,0l0,54.6875l9.03125,0l0,-8.5q2.84375,4.98438 7.375,7.39063q4.54687,2.42187 11.04687,2.42187q0.92188,0 2.04688,-0.125q1.125,-0.10937 2.48437,-0.35937l0.04688,-9.21875z"/>
  <path style="vector-effect: non-scaling-stroke;" stroke="null" id="DejaVuSans-102-57" d="m37.10938,75.98438l0,-7.48438l-8.59375,0q-4.82813,0 -6.71875,-1.95312q-1.875,-1.95313 -1.875,-7.03125l0,-4.82813l14.79687,0l0,-6.98437l-14.79687,0l0,-47.70313l-9.03125,0l0,47.70313l-8.59375,0l0,6.98437l8.59375,0l0,3.8125q0,9.125 4.25,13.29688q4.25,4.1875 13.46875,4.1875l8.5,0z"/>
  <path style="vector-effect: non-scaling-stroke;" stroke="null" id="DejaVuSans-49-6" d="m12.40625,8.29688l16.10938,0l0,55.625l-17.53125,-3.51563l0,8.98438l17.4375,3.51562l9.85937,0l0,-64.60937l16.10938,0l0,-8.29688l-41.98438,0l0,8.29688z"/>
  <path style="vector-effect: non-scaling-stroke;" stroke="null" id="DejaVuSans-98-2" d="m48.6875,27.29688q0,9.90625 -4.07812,15.54687q-4.07813,5.64063 -11.20313,5.64063q-7.14062,0 -11.21875,-5.64063q-4.07812,-5.64062 -4.07812,-15.54687q0,-9.90625 4.07812,-15.54688q4.07813,-5.64062 11.21875,-5.64062q7.125,0 11.20313,5.64062q4.07812,5.64063 4.07812,15.54688zm-30.57812,19.09375q2.84375,4.875 7.15625,7.23437q4.32812,2.375 10.32812,2.375q9.96875,0 16.1875,-7.90625q6.23438,-7.90625 6.23438,-20.79687q0,-12.89063 -6.23438,-20.8125q-6.21875,-7.90626 -16.1875,-7.90626q-6,0 -10.32812,2.37501q-4.3125,2.375 -7.15625,7.25l0,-8.20313l-9.03125,0l0,75.98438l9.03125,0l0,-29.59375z"/>
  <path style="vector-effect: non-scaling-stroke;" stroke="null" id="DejaVuSans-83-7" d="m53.51563,70.51563l0,-9.625q-5.60938,2.6875 -10.59375,4q-4.98438,1.32812 -9.625,1.32812q-8.04688,0 -12.42188,-3.125q-4.375,-3.125 -4.375,-8.89062q0,-4.84375 2.90625,-7.3125q2.90625,-2.45313 11.01563,-3.96875l5.95312,-1.21875q11.03125,-2.10938 16.28125,-7.40625q5.25,-5.29688 5.25,-14.17188q0,-10.60937 -7.10937,-16.07812q-7.09375,-5.46876 -20.8125,-5.46876q-5.17188,0 -11.01563,1.17188q-5.82812,1.17188 -12.07812,3.46875l0,10.15625q6,-3.35937 11.76562,-5.07812q5.76563,-1.70313 11.32813,-1.70313q8.4375,0 13.03125,3.3125q4.59375,3.32813 4.59375,9.48438q0,5.35937 -3.29688,8.39062q-3.29687,3.03125 -10.8125,4.54688l-6.01562,1.17187q-11.03125,2.1875 -15.96875,6.875q-4.92188,4.6875 -4.92188,13.04688q0,9.67187 6.8125,15.23437q6.8125,5.5625 18.76563,5.5625q5.14062,0 10.45312,-0.9375q5.32813,-0.92187 10.89063,-2.76562z"/>
  <path style="vector-effect: non-scaling-stroke;" stroke="null" id="DejaVuSans-79-03" d="m39.40625,66.21875q-10.75,0 -17.07812,-8.01562q-6.3125,-8 -6.3125,-21.82813q0,-13.76562 6.3125,-21.78125q6.32812,-8 17.07812,-8q10.73438,0 17.01563,8q6.28125,8.01563 6.28125,21.78125q0,13.82813 -6.28125,21.82813q-6.28125,8.01562 -17.01563,8.01562zm0,8q15.32813,0 24.5,-10.28125q9.1875,-10.28125 9.1875,-27.5625q0,-17.23437 -9.1875,-27.51562q-9.17187,-10.28126 -24.5,-10.28126q-15.375,0 -24.59375,10.25001q-9.20312,10.26562 -9.20312,27.54687q0,17.28125 9.20312,27.5625q9.21875,10.28125 24.59375,10.28125z"/>
  <path style="vector-effect: non-scaling-stroke;" stroke="null" id="DejaVuSans-82-9" d="m44.39063,34.1875q3.17187,-1.07812 6.17187,-4.59375q3,-3.51562 6.03125,-9.67187l10.01563,-19.92188l-10.60938,0l-9.3125,18.70313q-3.625,7.32812 -7.01562,9.71875q-3.39063,2.39062 -9.25,2.39062l-10.75,0l0,-30.8125l-9.85938,0l0,72.90625l22.26563,0q12.5,0 18.65625,-5.23437q6.15625,-5.21875 6.15625,-15.76563q0,-6.89062 -3.20313,-11.4375q-3.20312,-4.53125 -9.29687,-6.28125zm-24.71875,30.60938l0,-25.875l12.40625,0q7.125,0 10.76562,3.29687q3.64063,3.29688 3.64063,9.6875q0,6.39063 -3.64063,9.64063q-3.64062,3.25 -10.76562,3.25l-12.40625,0z"/>
  <path style="vector-effect: non-scaling-stroke;" stroke="null" id="DejaVuSans-70-9" d="m9.8125,72.90625l41.89063,0l0,-8.3125l-32.03125,0l0,-21.48437l28.90625,0l0,-8.29688l-28.90625,0l0,-34.8125l-9.85938,0l0,72.90625z"/>
  <path style="vector-effect: non-scaling-stroke;" stroke="null" id="DejaVuSans-51-91" d="m40.57813,39.3125q7.07812,-1.51562 11.04687,-6.3125q3.98438,-4.78125 3.98438,-11.8125q0,-10.78125 -7.42188,-16.70312q-7.42187,-5.90626 -21.09375,-5.90626q-4.57812,0 -9.4375,0.90625q-4.85937,0.90626 -10.03125,2.71876l0,9.51562q4.09375,-2.39062 8.96875,-3.60937q4.89063,-1.21875 10.21875,-1.21875q9.26563,0 14.125,3.65625q4.85938,3.65625 4.85938,10.64062q0,6.45313 -4.51563,10.07813q-4.51562,3.64062 -12.5625,3.64062l-8.5,0l0,8.10938l8.89063,0q7.26562,0 11.125,2.90625q3.85937,2.90625 3.85937,8.375q0,5.60937 -3.98437,8.60937q-3.96875,3.01563 -11.39063,3.01563q-4.0625,0 -8.70312,-0.89063q-4.64063,-0.875 -10.20313,-2.71875l0,8.78125q5.625,1.5625 10.53125,2.34375q4.90625,0.78125 9.25,0.78125q11.23438,0 17.76563,-5.10937q6.54687,-5.09375 6.54687,-13.78125q0,-6.0625 -3.46875,-10.23438q-3.46875,-4.17187 -9.85937,-5.78125z"/>
  <path style="vector-effect: non-scaling-stroke;" stroke="null" id="DejaVuSans-69-72" d="m9.8125,72.90625l46.09375,0l0,-8.3125l-36.23437,0l0,-21.57812l34.71875,0l0,-8.29688l-34.71875,0l0,-26.42187l37.10937,0l0,-8.29688l-46.96875,0l0,72.90625z"/>
  <path style="vector-effect: non-scaling-stroke;" stroke="null" id="DejaVuSans-77-3" d="m9.8125,72.90625l14.70313,0l18.59375,-49.60937l18.70312,49.60937l14.70313,0l0,-72.90625l-9.625,0l0,64.01563l-18.79688,-50l-9.90625,0l-18.79687,50l0,-64.01563l-9.57813,0l0,72.90625z"/>
  <path style="vector-effect: non-scaling-stroke;" stroke="null" id="DejaVuSans-55-6" d="m8.20313,72.90625l46.875,0l0,-4.20312l-26.46875,-68.70313l-10.29688,0l24.90625,64.59375l-35.01562,0l0,8.3125z"/>
  <path style="vector-effect: non-scaling-stroke;" stroke="null" id="DejaVuSans-78-8" d="m9.8125,72.90625l13.28125,0l32.32813,-60.98437l0,60.98437l9.5625,0l0,-72.90625l-13.28125,0l-32.3125,60.98438l0,-60.98438l-9.57813,0l0,72.90625z"/>
  <path style="vector-effect: non-scaling-stroke;" stroke="null" id="DejaVuSans-95-7" d="m50.98438,-16.60938l0,-6.96875l-51.96876,0l0,6.96875l51.96876,0z"/>
  <path style="vector-effect: non-scaling-stroke;" stroke="null" id="DejaVuSans-66-1" d="m19.67188,34.8125l0,-26.70312l15.82812,0q7.95313,0 11.78125,3.29687q3.84375,3.29688 3.84375,10.07813q0,6.84375 -3.84375,10.07812q-3.82812,3.25 -11.78125,3.25l-15.82812,0zm0,29.98438l0,-21.96875l14.60937,0q7.21875,0 10.75,2.70312q3.54688,2.71875 3.54688,8.28125q0,5.51563 -3.54688,8.25q-3.53125,2.73438 -10.75,2.73438l-14.60937,0zm-9.85938,8.10937l25.20313,0q11.28125,0 17.375,-4.6875q6.10937,-4.6875 6.10937,-13.32812q0,-6.70313 -3.125,-10.65625q-3.125,-3.95313 -9.1875,-4.92188q7.28125,-1.5625 11.3125,-6.53125q4.03125,-4.95312 4.03125,-12.375q0,-9.76562 -6.64062,-15.09375q-6.64063,-5.3125 -18.90625,-5.3125l-26.17188,0l0,72.90625z"/>
  <path style="vector-effect: non-scaling-stroke;" stroke="null" id="DejaVuSans-68-38" d="m19.67188,64.79688l0,-56.6875l11.92187,0q15.09375,0 22.09375,6.82812q7,6.84375 7,21.59375q0,14.64063 -7,21.45313q-7,6.8125 -22.09375,6.8125l-11.92187,0zm-9.85938,8.10937l20.26563,0q21.1875,0 31.09375,-8.8125q9.92187,-8.8125 9.92187,-27.5625q0,-18.85937 -9.96875,-27.70312q-9.95312,-8.82813 -31.04687,-8.82813l-20.26563,0l0,72.90625z"/>
  <path style="vector-effect: non-scaling-stroke;" stroke="null" id="DejaVuSans-73-8" d="m9.8125,72.90625l9.85938,0l0,-72.90625l-9.85938,0l0,72.90625z"/>
  <path style="vector-effect: non-scaling-stroke;" stroke="null" id="DejaVuSans-84-0" d="m-0.29688,72.90625l61.67188,0l0,-8.3125l-25.875,0l0,-64.59375l-9.90625,0l0,64.59375l-25.89063,0l0,8.3125z"/>
  <path style="vector-effect: non-scaling-stroke;" stroke="null" id="DejaVuSans-71-4" d="m59.51563,10.40625l0,19.57813l-16.10938,0l0,8.10937l25.875,0l0,-31.3125q-5.70312,-4.04687 -12.59375,-6.125q-6.875,-2.07813 -14.6875,-2.07813q-17.09375,0 -26.75,9.98438q-9.64062,10 -9.64062,27.8125q0,17.875 9.64062,27.85938q9.65625,9.98437 26.75,9.98437q7.125,0 13.54688,-1.76562q6.42187,-1.75 11.84375,-5.17188l0,-10.5q-5.46875,4.64063 -11.625,6.98438q-6.15625,2.34375 -12.9375,2.34375q-13.39063,0 -20.10938,-7.46875q-6.70312,-7.46875 -6.70312,-22.26563q0,-14.75 6.70312,-22.21875q6.71875,-7.46875 20.10938,-7.46875q5.21875,0 9.3125,0.90625q4.10937,0.90625 7.375,2.8125z"/>
  <path style="vector-effect: non-scaling-stroke;" stroke="null" id="DejaVuSans-103-6" d="m45.40625,27.98438q0,9.76562 -4.03125,15.125q-4.01562,5.375 -11.29687,5.375q-7.21875,0 -11.25,-5.375q-4.03125,-5.35938 -4.03125,-15.125q0,-9.71875 4.03125,-15.09375q4.03125,-5.375 11.25,-5.375q7.28125,0 11.29687,5.375q4.03125,5.375 4.03125,15.09375zm8.98438,-21.20313q0,-13.95313 -6.20313,-20.76563q-6.1875,-6.8125 -18.98437,-6.8125q-4.73438,0 -8.9375,0.70313q-4.20313,0.70312 -8.15625,2.17187l0,8.73438q3.95312,-2.14063 7.8125,-3.15625q3.85937,-1.03125 7.85937,-1.03125q8.84375,0 13.23438,4.60937q4.39062,4.60938 4.39062,13.93751l0,4.45312q-2.78125,-4.84375 -7.125,-7.23437q-4.34375,-2.39063 -10.40625,-2.39063q-10.04687,0 -16.20312,7.65625q-6.15625,7.67188 -6.15625,20.32813q0,12.6875 6.15625,20.34375q6.15625,7.67187 16.20312,7.67187q6.0625,0 10.40625,-2.39062q4.34375,-2.39063 7.125,-7.21875l0,8.29687l8.98438,0l0,-47.90625z"/>
  <path style="vector-effect: non-scaling-stroke;" stroke="null" id="DejaVuSans-101-0" d="m56.20313,29.59375l0,-4.39062l-41.3125,0q0.59375,-9.28125 5.59375,-14.14063q5,-4.85937 13.9375,-4.85937q5.17187,0 10.03125,1.26562q4.85937,1.26563 9.65625,3.8125l0,-8.5q-4.84375,-2.04687 -9.92188,-3.125q-5.07812,-1.07813 -10.29687,-1.07813q-13.09375,0 -20.73438,7.60938q-7.64062,7.625 -7.64062,20.625q0,13.42188 7.25,21.29688q7.25,7.89062 19.5625,7.89062q11.03125,0 17.45312,-7.10937q6.42188,-7.09375 6.42188,-19.29688zm-8.98438,2.64063q-0.09375,7.35937 -4.125,11.75q-4.03125,4.40625 -10.67187,4.40625q-7.51563,0 -12.03125,-4.25q-4.51563,-4.25 -5.20313,-11.96875l32.03125,0.0625z"/>
  <clipPath style="vector-effect: non-scaling-stroke;" stroke="null" id="pf287f84f73">
   <rect style="vector-effect: non-scaling-stroke;" stroke="null" id="rect2130" y="-1604.95457" x="-6064.05373" width="207.25" height="307.24"/>
  </clipPath>
  <style style="vector-effect: non-scaling-stroke;" stroke="null" type="text/css">*{stroke-linecap:butt;stroke-linejoin:round;}</style>
  <path stroke="#000000" style="vector-effect: non-scaling-stroke;" stroke-width="0.8" id="m893115d749" d="m0,0l0,3.5"/>
  <path style="vector-effect: non-scaling-stroke;" stroke="null" id="DejaVuSans-48-75" d="m31.78125,66.40625q-7.60937,0 -11.45312,-7.5q-3.82813,-7.48437 -3.82813,-22.53125q0,-14.98437 3.82813,-22.48437q3.84375,-7.5 11.45312,-7.5q7.67188,0 11.5,7.5q3.84375,7.5 3.84375,22.48437q0,15.04688 -3.84375,22.53125q-3.82812,7.5 -11.5,7.5zm0,7.8125q12.26563,0 18.73438,-9.70312q6.46875,-9.6875 6.46875,-28.14063q0,-18.40625 -6.46875,-28.10937q-6.46875,-9.68751 -18.73438,-9.68751q-12.25,0 -18.71875,9.68751q-6.46875,9.70312 -6.46875,28.10937q0,18.45313 6.46875,28.14063q6.46875,9.70312 18.71875,9.70312z"/>
  <path style="vector-effect: non-scaling-stroke;" stroke="null" id="DejaVuSans-50-6" d="m19.1875,8.29688l34.42188,0l0,-8.29688l-46.28125,0l0,8.29688q5.60937,5.8125 15.29687,15.59375q9.70313,9.79687 12.1875,12.64062q4.73438,5.3125 6.60938,9q1.89062,3.6875 1.89062,7.25q0,5.8125 -4.07812,9.46875q-4.07813,3.67188 -10.625,3.67188q-4.64063,0 -9.79688,-1.60938q-5.14062,-1.60937 -11,-4.89062l0,9.96875q5.95313,2.39062 11.125,3.60937q5.1875,1.21875 9.48438,1.21875q11.32812,0 18.0625,-5.67187q6.73437,-5.65625 6.73437,-15.125q0,-4.5 -1.6875,-8.53125q-1.67187,-4.01563 -6.125,-9.48438q-1.21875,-1.42187 -7.76562,-8.1875q-6.53125,-6.76562 -18.45313,-18.92187z"/>
  <path style="vector-effect: non-scaling-stroke;" stroke="null" id="DejaVuSans-52-5" d="m37.79688,64.3125l-24.90625,-38.92187l24.90625,0l0,38.92187zm-2.59375,8.59375l12.40625,0l0,-47.51562l10.40625,0l0,-8.20313l-10.40625,0l0,-17.1875l-9.8125,0l0,17.1875l-32.90625,0l0,9.51563l30.3125,46.20312z"/>
  <path style="vector-effect: non-scaling-stroke;" stroke="null" id="DejaVuSans-54-3" d="m33.01563,40.375q-6.64063,0 -10.53125,-4.54687q-3.875,-4.53125 -3.875,-12.4375q0,-7.85938 3.875,-12.4375q3.89062,-4.5625 10.53125,-4.5625q6.64062,0 10.51562,4.5625q3.875,4.57812 3.875,12.4375q0,7.90625 -3.875,12.4375q-3.875,4.54687 -10.51562,4.54687zm19.57812,30.92188l0,-8.98438q-3.71875,1.75 -7.5,2.67188q-3.78125,0.9375 -7.5,0.9375q-9.76562,0 -14.92187,-6.59375q-5.14063,-6.59375 -5.875,-19.92188q2.875,4.25 7.21875,6.51563q4.35937,2.26562 9.57812,2.26562q10.98438,0 17.35938,-6.67187q6.375,-6.65625 6.375,-18.125q0,-11.23438 -6.64063,-18.03125q-6.64062,-6.78126 -17.67187,-6.78126q-12.65625,0 -19.34375,9.68751q-6.6875,9.70312 -6.6875,28.10937q0,17.28125 8.20312,27.5625q8.20313,10.28125 22.01563,10.28125q3.71875,0 7.5,-0.73437q3.78125,-0.73438 7.89062,-2.1875z"/>
  <path style="vector-effect: non-scaling-stroke;" stroke="null" id="DejaVuSans-109-0" d="m52,44.1875q3.375,6.0625 8.0625,8.9375q4.6875,2.875 11.03125,2.875q8.54688,0 13.1875,-5.98437q4.64063,-5.96875 4.64063,-17l0,-33.01563l-9.03125,0l0,32.71875q0,7.85938 -2.79688,11.65625q-2.78125,3.8125 -8.48437,3.8125q-6.98438,0 -11.04688,-4.64062q-4.04687,-4.625 -4.04687,-12.64063l0,-30.90625l-9.03125,0l0,32.71875q0,7.90625 -2.78125,11.6875q-2.78125,3.78125 -8.59375,3.78125q-6.89063,0 -10.95313,-4.65625q-4.04687,-4.65625 -4.04687,-12.625l0,-30.90625l-9.03125,0l0,54.6875l9.03125,0l0,-8.5q3.07812,5.03125 7.375,7.42188q4.29687,2.39062 10.20312,2.39062q5.96875,0 10.14063,-3.03125q4.17187,-3.01562 6.17187,-8.78125z"/>
  <path style="vector-effect: non-scaling-stroke;" stroke="null" id="DejaVuSans-117-48" d="m8.5,21.57813l0,33.10937l8.98438,0l0,-32.76562q0,-7.76563 3.01562,-11.65625q3.03125,-3.875 9.09375,-3.875q7.26563,0 11.48438,4.64062q4.23437,4.64063 4.23437,12.65625l0,31l8.98438,0l0,-54.6875l-8.98438,0l0,8.40625q-3.26562,-4.98437 -7.59375,-7.40625q-4.3125,-2.42188 -10.03125,-2.42188q-9.42187,0 -14.3125,5.85938q-4.875,5.85938 -4.875,17.14063zm22.60938,34.42187z"/>
  <path style="vector-effect: non-scaling-stroke;" stroke="null" id="DejaVuSans-116-5" d="m18.3125,70.21875l0,-15.53125l18.5,0l0,-6.98437l-18.5,0l0,-29.6875q0,-6.6875 1.82813,-8.59375q1.82812,-1.90625 7.45312,-1.90625l9.21875,0l0,-7.51563l-9.21875,0q-10.40625,0 -14.35937,3.875q-3.95313,3.89063 -3.95313,14.14063l0,29.6875l-6.59375,0l0,6.98437l6.59375,0l0,15.53125l9.03125,0z"/>
  <path style="vector-effect: non-scaling-stroke;" stroke="null" id="DejaVuSans-97-55" d="m34.28125,27.48438q-10.89062,0 -15.09375,-2.48438q-4.20312,-2.48437 -4.20312,-8.5q0,-4.78125 3.15625,-7.59375q3.15625,-2.79687 8.5625,-2.79687q7.48437,0 12,5.29687q4.51562,5.29688 4.51562,14.07813l0,2l-8.9375,0zm17.92188,3.71875l0,-31.20313l-8.98438,0l0,8.29688q-3.07812,-4.96875 -7.67187,-7.34375q-4.59375,-2.37501 -11.23438,-2.37501q-8.39062,0 -13.35937,4.71876q-4.95313,4.71875 -4.95313,12.625q0,9.21875 6.17188,13.90625q6.1875,4.6875 18.4375,4.6875l12.60937,0l0,0.89062q0,6.20313 -4.07812,9.59375q-4.07813,3.39063 -11.45313,3.39063q-4.6875,0 -9.14062,-1.125q-4.4375,-1.125 -8.53125,-3.375l0,8.3125q4.92187,1.90625 9.5625,2.84375q4.64062,0.95312 9.03125,0.95312q11.875,0 17.73437,-6.15625q5.85938,-6.14062 5.85938,-18.64062z"/>
  <path style="vector-effect: non-scaling-stroke;" stroke="null" id="DejaVuSans-105-4" d="m9.42188,54.6875l8.98437,0l0,-54.6875l-8.98437,0l0,54.6875zm0,21.29688l8.98437,0l0,-11.39063l-8.98437,0l0,11.39063z"/>
  <path style="vector-effect: non-scaling-stroke;" stroke="null" id="DejaVuSans-111-2" d="m30.60938,48.39063q-7.21875,0 -11.42188,-5.64063q-4.20312,-5.64062 -4.20312,-15.45312q0,-9.8125 4.17187,-15.45313q4.1875,-5.64062 11.45313,-5.64062q7.1875,0 11.375,5.65625q4.20312,5.67187 4.20312,15.4375q0,9.71875 -4.20312,15.40625q-4.1875,5.6875 -11.375,5.6875zm0,7.60937q11.71875,0 18.40625,-7.625q6.70312,-7.60937 6.70312,-21.07812q0,-13.42188 -6.70312,-21.07813q-6.6875,-7.64063 -18.40625,-7.64063q-11.76563,0 -18.4375,7.64063q-6.65625,7.65625 -6.65625,21.07813q0,13.46875 6.65625,21.07812q6.67187,7.625 18.4375,7.625z"/>
  <path style="vector-effect: non-scaling-stroke;" stroke="null" id="DejaVuSans-110-19" d="m54.89063,33.01563l0,-33.01563l-8.98438,0l0,32.71875q0,7.76563 -3.03125,11.60938q-3.03125,3.85937 -9.07812,3.85937q-7.28125,0 -11.48438,-4.64062q-4.20312,-4.625 -4.20312,-12.64063l0,-30.90625l-9.03125,0l0,54.6875l9.03125,0l0,-8.5q3.23437,4.9375 7.59375,7.375q4.375,2.4375 10.09375,2.4375q9.42187,0 14.25,-5.82812q4.84375,-5.82813 4.84375,-17.15625z"/>
  <path style="vector-effect: non-scaling-stroke;" stroke="null" id="DejaVuSans-115-24" d="m44.28125,53.07813l0,-8.5q-3.79687,1.95312 -7.90625,2.92187q-4.09375,0.98438 -8.5,0.98438q-6.6875,0 -10.03125,-2.04688q-3.34375,-2.04687 -3.34375,-6.15625q0,-3.125 2.39063,-4.90625q2.39062,-1.78125 9.625,-3.39062l3.07812,-0.6875q9.5625,-2.04688 13.59375,-5.78125q4.03125,-3.73438 4.03125,-10.42188q0,-7.625 -6.03125,-12.07812q-6.03125,-4.43751 -16.57812,-4.43751q-4.39063,0 -9.15625,0.85938q-4.76563,0.85938 -10.03125,2.5625l0,9.28125q4.98437,-2.59375 9.8125,-3.89062q4.82812,-1.28125 9.57812,-1.28125q6.34375,0 9.75,2.17187q3.42188,2.17188 3.42188,6.125q0,3.65625 -2.46875,5.60938q-2.45313,1.95312 -10.8125,3.76562l-3.125,0.73438q-8.34375,1.75 -12.0625,5.39062q-3.70313,3.64063 -3.70313,9.98438q0,7.71875 5.46875,11.90625q5.46875,4.20312 15.53125,4.20312q4.96875,0 9.35938,-0.73437q4.40625,-0.71875 8.10937,-2.1875z"/>
  <path stroke="#000000" style="vector-effect: non-scaling-stroke;" stroke-width="0.8" id="md23ca7d0aa" d="m0,0l-3.5,0"/>
  <path style="vector-effect: non-scaling-stroke;" stroke="null" id="DejaVuSans-114-5" d="m41.10938,46.29688q-1.51563,0.875 -3.29688,1.28125q-1.78125,0.42187 -3.92187,0.42187q-7.625,0 -11.70313,-4.95312q-4.07812,-4.95313 -4.07812,-14.23438l0,-28.8125l-9.03125,0l0,54.6875l9.03125,0l0,-8.5q2.84375,4.98438 7.375,7.39063q4.54687,2.42187 11.04687,2.42187q0.92188,0 2.04688,-0.125q1.125,-0.10937 2.48437,-0.35937l0.04688,-9.21875z"/>
  <path style="vector-effect: non-scaling-stroke;" stroke="null" id="DejaVuSans-102-8" d="m37.10938,75.98438l0,-7.48438l-8.59375,0q-4.82813,0 -6.71875,-1.95312q-1.875,-1.95313 -1.875,-7.03125l0,-4.82813l14.79687,0l0,-6.98437l-14.79687,0l0,-47.70313l-9.03125,0l0,47.70313l-8.59375,0l0,6.98437l8.59375,0l0,3.8125q0,9.125 4.25,13.29688q4.25,4.1875 13.46875,4.1875l8.5,0z"/>
  <path style="vector-effect: non-scaling-stroke;" stroke="null" id="DejaVuSans-49-62" d="m12.40625,8.29688l16.10938,0l0,55.625l-17.53125,-3.51563l0,8.98438l17.4375,3.51562l9.85937,0l0,-64.60937l16.10938,0l0,-8.29688l-41.98438,0l0,8.29688z"/>
  <path style="vector-effect: non-scaling-stroke;" stroke="null" id="DejaVuSans-98-5" d="m48.6875,27.29688q0,9.90625 -4.07812,15.54687q-4.07813,5.64063 -11.20313,5.64063q-7.14062,0 -11.21875,-5.64063q-4.07812,-5.64062 -4.07812,-15.54687q0,-9.90625 4.07812,-15.54688q4.07813,-5.64062 11.21875,-5.64062q7.125,0 11.20313,5.64062q4.07812,5.64063 4.07812,15.54688zm-30.57812,19.09375q2.84375,4.875 7.15625,7.23437q4.32812,2.375 10.32812,2.375q9.96875,0 16.1875,-7.90625q6.23438,-7.90625 6.23438,-20.79687q0,-12.89063 -6.23438,-20.8125q-6.21875,-7.90626 -16.1875,-7.90626q-6,0 -10.32812,2.37501q-4.3125,2.375 -7.15625,7.25l0,-8.20313l-9.03125,0l0,75.98438l9.03125,0l0,-29.59375z"/>
  <path style="vector-effect: non-scaling-stroke;" stroke="null" id="DejaVuSans-83-1" d="m53.51563,70.51563l0,-9.625q-5.60938,2.6875 -10.59375,4q-4.98438,1.32812 -9.625,1.32812q-8.04688,0 -12.42188,-3.125q-4.375,-3.125 -4.375,-8.89062q0,-4.84375 2.90625,-7.3125q2.90625,-2.45313 11.01563,-3.96875l5.95312,-1.21875q11.03125,-2.10938 16.28125,-7.40625q5.25,-5.29688 5.25,-14.17188q0,-10.60937 -7.10937,-16.07812q-7.09375,-5.46876 -20.8125,-5.46876q-5.17188,0 -11.01563,1.17188q-5.82812,1.17188 -12.07812,3.46875l0,10.15625q6,-3.35937 11.76562,-5.07812q5.76563,-1.70313 11.32813,-1.70313q8.4375,0 13.03125,3.3125q4.59375,3.32813 4.59375,9.48438q0,5.35937 -3.29688,8.39062q-3.29687,3.03125 -10.8125,4.54688l-6.01562,1.17187q-11.03125,2.1875 -15.96875,6.875q-4.92188,4.6875 -4.92188,13.04688q0,9.67187 6.8125,15.23437q6.8125,5.5625 18.76563,5.5625q5.14062,0 10.45312,-0.9375q5.32813,-0.92187 10.89063,-2.76562z"/>
  <path style="vector-effect: non-scaling-stroke;" stroke="null" id="DejaVuSans-79-3" d="m39.40625,66.21875q-10.75,0 -17.07812,-8.01562q-6.3125,-8 -6.3125,-21.82813q0,-13.76562 6.3125,-21.78125q6.32812,-8 17.07812,-8q10.73438,0 17.01563,8q6.28125,8.01563 6.28125,21.78125q0,13.82813 -6.28125,21.82813q-6.28125,8.01562 -17.01563,8.01562zm0,8q15.32813,0 24.5,-10.28125q9.1875,-10.28125 9.1875,-27.5625q0,-17.23437 -9.1875,-27.51562q-9.17187,-10.28126 -24.5,-10.28126q-15.375,0 -24.59375,10.25001q-9.20312,10.26562 -9.20312,27.54687q0,17.28125 9.20312,27.5625q9.21875,10.28125 24.59375,10.28125z"/>
  <path style="vector-effect: non-scaling-stroke;" stroke="null" id="DejaVuSans-82-97" d="m44.39063,34.1875q3.17187,-1.07812 6.17187,-4.59375q3,-3.51562 6.03125,-9.67187l10.01563,-19.92188l-10.60938,0l-9.3125,18.70313q-3.625,7.32812 -7.01562,9.71875q-3.39063,2.39062 -9.25,2.39062l-10.75,0l0,-30.8125l-9.85938,0l0,72.90625l22.26563,0q12.5,0 18.65625,-5.23437q6.15625,-5.21875 6.15625,-15.76563q0,-6.89062 -3.20313,-11.4375q-3.20312,-4.53125 -9.29687,-6.28125zm-24.71875,30.60938l0,-25.875l12.40625,0q7.125,0 10.76562,3.29687q3.64063,3.29688 3.64063,9.6875q0,6.39063 -3.64063,9.64063q-3.64062,3.25 -10.76562,3.25l-12.40625,0z"/>
  <path style="vector-effect: non-scaling-stroke;" stroke="null" id="DejaVuSans-70-3" d="m9.8125,72.90625l41.89063,0l0,-8.3125l-32.03125,0l0,-21.48437l28.90625,0l0,-8.29688l-28.90625,0l0,-34.8125l-9.85938,0l0,72.90625z"/>
  <path style="vector-effect: non-scaling-stroke;" stroke="null" id="DejaVuSans-51-7" d="m40.57813,39.3125q7.07812,-1.51562 11.04687,-6.3125q3.98438,-4.78125 3.98438,-11.8125q0,-10.78125 -7.42188,-16.70312q-7.42187,-5.90626 -21.09375,-5.90626q-4.57812,0 -9.4375,0.90625q-4.85937,0.90626 -10.03125,2.71876l0,9.51562q4.09375,-2.39062 8.96875,-3.60937q4.89063,-1.21875 10.21875,-1.21875q9.26563,0 14.125,3.65625q4.85938,3.65625 4.85938,10.64062q0,6.45313 -4.51563,10.07813q-4.51562,3.64062 -12.5625,3.64062l-8.5,0l0,8.10938l8.89063,0q7.26562,0 11.125,2.90625q3.85937,2.90625 3.85937,8.375q0,5.60937 -3.98437,8.60937q-3.96875,3.01563 -11.39063,3.01563q-4.0625,0 -8.70312,-0.89063q-4.64063,-0.875 -10.20313,-2.71875l0,8.78125q5.625,1.5625 10.53125,2.34375q4.90625,0.78125 9.25,0.78125q11.23438,0 17.76563,-5.10937q6.54687,-5.09375 6.54687,-13.78125q0,-6.0625 -3.46875,-10.23438q-3.46875,-4.17187 -9.85937,-5.78125z"/>
  <path style="vector-effect: non-scaling-stroke;" stroke="null" id="DejaVuSans-69-50" d="m9.8125,72.90625l46.09375,0l0,-8.3125l-36.23437,0l0,-21.57812l34.71875,0l0,-8.29688l-34.71875,0l0,-26.42187l37.10937,0l0,-8.29688l-46.96875,0l0,72.90625z"/>
  <path style="vector-effect: non-scaling-stroke;" stroke="null" id="DejaVuSans-77-2" d="m9.8125,72.90625l14.70313,0l18.59375,-49.60937l18.70312,49.60937l14.70313,0l0,-72.90625l-9.625,0l0,64.01563l-18.79688,-50l-9.90625,0l-18.79687,50l0,-64.01563l-9.57813,0l0,72.90625z"/>
  <path style="vector-effect: non-scaling-stroke;" stroke="null" id="DejaVuSans-55-1" d="m8.20313,72.90625l46.875,0l0,-4.20312l-26.46875,-68.70313l-10.29688,0l24.90625,64.59375l-35.01562,0l0,8.3125z"/>
  <path style="vector-effect: non-scaling-stroke;" stroke="null" id="DejaVuSans-56-8" d="m31.78125,34.625q-7.03125,0 -11.0625,-3.76562q-4.01562,-3.76563 -4.01562,-10.34375q0,-6.59375 4.01562,-10.35938q4.03125,-3.76562 11.0625,-3.76562q7.03125,0 11.07813,3.78125q4.0625,3.79687 4.0625,10.34375q0,6.57812 -4.03125,10.34375q-4.01563,3.76562 -11.10938,3.76562zm-9.85937,4.1875q-6.34375,1.5625 -9.89063,5.90625q-3.53125,4.35938 -3.53125,10.60938q0,8.73437 6.21875,13.8125q6.23438,5.07812 17.0625,5.07812q10.89063,0 17.09375,-5.07812q6.20313,-5.07813 6.20313,-13.8125q0,-6.25 -3.54688,-10.60938q-3.53125,-4.34375 -9.82812,-5.90625q7.125,-1.65625 11.09375,-6.5q3.98437,-4.82812 3.98437,-11.79687q0,-10.60938 -6.46875,-16.28125q-6.46875,-5.65626 -18.53125,-5.65626q-12.04687,0 -18.53125,5.65626q-6.46875,5.67187 -6.46875,16.28125q0,6.96875 4,11.79687q4.01563,4.84375 11.14063,6.5zm-3.60938,15.57813q0,-5.65625 3.53125,-8.82813q3.54688,-3.17187 9.9375,-3.17187q6.35938,0 9.9375,3.17187q3.59375,3.17188 3.59375,8.82813q0,5.67187 -3.59375,8.84375q-3.57812,3.17187 -9.9375,3.17187q-6.39062,0 -9.9375,-3.17187q-3.53125,-3.17188 -3.53125,-8.84375z"/>
  <path style="vector-effect: non-scaling-stroke;" stroke="null" id="DejaVuSans-78-1" d="m9.8125,72.90625l13.28125,0l32.32813,-60.98437l0,60.98437l9.5625,0l0,-72.90625l-13.28125,0l-32.3125,60.98438l0,-60.98438l-9.57813,0l0,72.90625z"/>
  <path style="vector-effect: non-scaling-stroke;" stroke="null" id="DejaVuSans-95-8" d="m50.98438,-16.60938l0,-6.96875l-51.96876,0l0,6.96875l51.96876,0z"/>
  <path style="vector-effect: non-scaling-stroke;" stroke="null" id="DejaVuSans-66-5" d="m19.67188,34.8125l0,-26.70312l15.82812,0q7.95313,0 11.78125,3.29687q3.84375,3.29688 3.84375,10.07813q0,6.84375 -3.84375,10.07812q-3.82812,3.25 -11.78125,3.25l-15.82812,0zm0,29.98438l0,-21.96875l14.60937,0q7.21875,0 10.75,2.70312q3.54688,2.71875 3.54688,8.28125q0,5.51563 -3.54688,8.25q-3.53125,2.73438 -10.75,2.73438l-14.60937,0zm-9.85938,8.10937l25.20313,0q11.28125,0 17.375,-4.6875q6.10937,-4.6875 6.10937,-13.32812q0,-6.70313 -3.125,-10.65625q-3.125,-3.95313 -9.1875,-4.92188q7.28125,-1.5625 11.3125,-6.53125q4.03125,-4.95312 4.03125,-12.375q0,-9.76562 -6.64062,-15.09375q-6.64063,-5.3125 -18.90625,-5.3125l-26.17188,0l0,72.90625z"/>
  <path style="vector-effect: non-scaling-stroke;" stroke="null" id="DejaVuSans-68-6" d="m19.67188,64.79688l0,-56.6875l11.92187,0q15.09375,0 22.09375,6.82812q7,6.84375 7,21.59375q0,14.64063 -7,21.45313q-7,6.8125 -22.09375,6.8125l-11.92187,0zm-9.85938,8.10937l20.26563,0q21.1875,0 31.09375,-8.8125q9.92187,-8.8125 9.92187,-27.5625q0,-18.85937 -9.96875,-27.70312q-9.95312,-8.82813 -31.04687,-8.82813l-20.26563,0l0,72.90625z"/>
  <path style="vector-effect: non-scaling-stroke;" stroke="null" id="DejaVuSans-73-9" d="m9.8125,72.90625l9.85938,0l0,-72.90625l-9.85938,0l0,72.90625z"/>
  <path style="vector-effect: non-scaling-stroke;" stroke="null" id="DejaVuSans-84-4" d="m-0.29688,72.90625l61.67188,0l0,-8.3125l-25.875,0l0,-64.59375l-9.90625,0l0,64.59375l-25.89063,0l0,8.3125z"/>
  <path style="vector-effect: non-scaling-stroke;" stroke="null" id="DejaVuSans-71-1" d="m59.51563,10.40625l0,19.57813l-16.10938,0l0,8.10937l25.875,0l0,-31.3125q-5.70312,-4.04687 -12.59375,-6.125q-6.875,-2.07813 -14.6875,-2.07813q-17.09375,0 -26.75,9.98438q-9.64062,10 -9.64062,27.8125q0,17.875 9.64062,27.85938q9.65625,9.98437 26.75,9.98437q7.125,0 13.54688,-1.76562q6.42187,-1.75 11.84375,-5.17188l0,-10.5q-5.46875,4.64063 -11.625,6.98438q-6.15625,2.34375 -12.9375,2.34375q-13.39063,0 -20.10938,-7.46875q-6.70312,-7.46875 -6.70312,-22.26563q0,-14.75 6.70312,-22.21875q6.71875,-7.46875 20.10938,-7.46875q5.21875,0 9.3125,0.90625q4.10937,0.90625 7.375,2.8125z"/>
  <path style="vector-effect: non-scaling-stroke;" stroke="null" id="DejaVuSans-103-61" d="m45.40625,27.98438q0,9.76562 -4.03125,15.125q-4.01562,5.375 -11.29687,5.375q-7.21875,0 -11.25,-5.375q-4.03125,-5.35938 -4.03125,-15.125q0,-9.71875 4.03125,-15.09375q4.03125,-5.375 11.25,-5.375q7.28125,0 11.29687,5.375q4.03125,5.375 4.03125,15.09375zm8.98438,-21.20313q0,-13.95313 -6.20313,-20.76563q-6.1875,-6.8125 -18.98437,-6.8125q-4.73438,0 -8.9375,0.70313q-4.20313,0.70312 -8.15625,2.17187l0,8.73438q3.95312,-2.14063 7.8125,-3.15625q3.85937,-1.03125 7.85937,-1.03125q8.84375,0 13.23438,4.60937q4.39062,4.60938 4.39062,13.93751l0,4.45312q-2.78125,-4.84375 -7.125,-7.23437q-4.34375,-2.39063 -10.40625,-2.39063q-10.04687,0 -16.20312,7.65625q-6.15625,7.67188 -6.15625,20.32813q0,12.6875 6.15625,20.34375q6.15625,7.67187 16.20312,7.67187q6.0625,0 10.40625,-2.39062q4.34375,-2.39063 7.125,-7.21875l0,8.29687l8.98438,0l0,-47.90625z"/>
  <path style="vector-effect: non-scaling-stroke;" stroke="null" id="DejaVuSans-101-2" d="m56.20313,29.59375l0,-4.39062l-41.3125,0q0.59375,-9.28125 5.59375,-14.14063q5,-4.85937 13.9375,-4.85937q5.17187,0 10.03125,1.26562q4.85937,1.26563 9.65625,3.8125l0,-8.5q-4.84375,-2.04687 -9.92188,-3.125q-5.07812,-1.07813 -10.29687,-1.07813q-13.09375,0 -20.73438,7.60938q-7.64062,7.625 -7.64062,20.625q0,13.42188 7.25,21.29688q7.25,7.89062 19.5625,7.89062q11.03125,0 17.45312,-7.10937q6.42188,-7.09375 6.42188,-19.29688zm-8.98438,2.64063q-0.09375,7.35937 -4.125,11.75q-4.03125,4.40625 -10.67187,4.40625q-7.51563,0 -12.03125,-4.25q-4.51563,-4.25 -5.20313,-11.96875l32.03125,0.0625z"/>
  <clipPath style="vector-effect: non-scaling-stroke;" stroke="null" id="p77a6a7de35">
   <rect style="vector-effect: non-scaling-stroke;" stroke="null" id="rect4416" y="-1604.95457" x="61.44603" width="207.25" height="307.24"/>
  </clipPath>
 </defs>
 <metadata style="vector-effect: non-scaling-stroke;" stroke="null" id="metadata5">image/svg+xml</metadata>
 <g stroke="null">
  <title stroke="null">background</title>
  <rect stroke="null" fill="none" id="canvas_background" height="26.62823" width="404.37548" y="-1" x="-1"/>
 </g>
 <g stroke="null">
  <title stroke="null">Layer 1</title>
  <rect x="0" stroke="#000000" fill="#89c4be" stroke-width="0.26458" stroke-linecap="round" stroke-miterlimit="4" y="0.58329" height="6.35" width="215" id="rect931"/>
  <rect stroke="#000000" fill="#eeeeee" stroke-width="0.26458" stroke-linecap="round" stroke-miterlimit="4" id="rect925" width="61" height="6.35" x="104" y="0.58329"/>
  <rect stroke="#000000" fill="#a3a3a3" stroke-width="0.26458" stroke-linecap="round" stroke-miterlimit="4" id="rect10848" width="187" height="6.35" x="215" y="0.58338"/>
  <text style="cursor: move;" stroke="null" font-size="4.5" font-family="sans-serif" text-anchor="middle" stroke-width="0.26458" id="svg_101" y="5.35272" x="135.50333" xml:space="preserve" font-weight="bold">RBD</text>
  <text style="cursor: move;" stroke="null" font-size="4.5" font-family="sans-serif" text-anchor="middle" stroke-width="0.26458" id="svg_52" y="13.68614" x="95.50335" xml:space="preserve" font-weight="bold">S1 subunit</text>
  <line stroke-linecap="round" stroke-linejoin="null" id="svg_53" y2="12.14741" x2="82.18647" y1="12.14741" x1="3.51896" fill-opacity="null" stroke-opacity="null" stroke-width="0.26458" stroke="#000000" fill="none"/>
  <line stroke="#000000" stroke-linecap="round" stroke-linejoin="null" id="svg_54" y2="11.81412" x2="214.5197" y1="11.81412" x1="110.51887" fill-opacity="null" stroke-opacity="null" stroke-width="0.26458" fill="none"/>
  <text stroke="null" font-size="4.5" font-family="sans-serif" text-anchor="middle" stroke-width="0.26458" id="svg_55" y="13.3528" x="308.16985" xml:space="preserve" font-weight="bold">S2 subunit</text>
  <line stroke-linecap="round" stroke-linejoin="null" id="svg_56" y2="11.81407" x2="294.1863" y1="11.81407" x1="215.51879" fill-opacity="null" stroke-opacity="null" stroke-width="0.26458" stroke="#000000" fill="none"/>
  <line stroke="#000000" stroke-linecap="round" stroke-linejoin="null" id="svg_57" y2="11.81412" x2="322.66659" y1="11.81412" x1="400.85197" fill-opacity="null" stroke-opacity="null" stroke-width="0.26458" fill="none"/>
  <line stroke-linecap="round" stroke-linejoin="null" id="svg_58" y2="15.48078" x2="215.02107" y1="5.81412" x1="215.02107" fill-opacity="null" stroke-opacity="null" stroke-width="0.26458" stroke="#000000" fill="none"/>
  <text style="cursor: move;" stroke="null" font-size="4.5" font-family="sans-serif" text-anchor="middle" stroke-width="0.26458" id="svg_59" y="22.3528" x="215.16992" xml:space="preserve" font-weight="bold">S cleavage site</text>
 </g>
</svg>